<svg width="476" height="258" viewBox="0 0 476 258" fill="none" xmlns="http://www.w3.org/2000/svg">
<path fill-rule="evenodd" clip-rule="evenodd" d="M366.63 38.5517V106.759H379.935V54.8621H403.589V106.759H416.894V38.5517H366.63ZM329.671 35.5862H326.715C306.018 35.5862 300.104 50.4138 300.104 69.6897V75.6207C300.104 93.4138 306.018 109.724 326.715 109.724H329.671C350.368 109.724 356.282 94.8966 356.282 75.6207V69.6897C356.282 51.8966 350.368 35.5862 329.671 35.5862ZM328.193 91.931C313.41 91.931 313.41 83.0345 313.41 72.6552C313.41 62.2759 313.41 53.3793 328.193 53.3793C342.976 53.3793 342.976 62.2759 342.976 72.6552C342.976 83.0345 342.976 91.931 328.193 91.931ZM264.624 35.5862H261.667C240.971 35.5862 235.057 50.4138 235.057 69.6897V75.6207C235.057 93.4138 240.971 109.724 261.667 109.724H264.624C285.321 109.724 291.234 94.8966 291.234 75.6207V69.6897C291.234 51.8966 285.321 35.5862 264.624 35.5862ZM263.146 91.931C248.362 91.931 248.362 83.0345 248.362 72.6552C248.362 62.2759 248.362 53.3793 263.146 53.3793C277.929 53.3793 277.929 62.2759 277.929 72.6552C277.929 83.0345 277.929 91.931 263.146 91.931ZM459.766 75.6207C443.504 108.241 416.894 126.034 379.935 126.034C347.411 126.034 229.144 126.034 161.14 126.034V0H0V258H14.7835V14.8276H144.878V124.552C134.53 124.552 125.66 124.552 119.746 124.552C99.0493 124.552 96.0926 121.586 90.1793 100.828C87.2226 91.931 90.1792 87.4828 96.0926 80.069C106.441 68.2069 119.746 66.7241 134.53 68.2069C133.051 56.3448 127.138 50.4138 115.311 48.931C109.398 48.931 102.006 48.931 96.0926 47.4483C84.2658 44.4828 73.9175 48.931 65.0474 56.3448C45.8289 74.1379 44.3505 96.3793 45.8288 120.103C45.8288 124.552 45.8288 127.517 45.8288 131.966C44.3505 143.828 41.3938 155.69 41.3938 167.552C42.8721 191.276 54.699 209.069 72.4391 223.897C79.8309 229.828 96.0927 229.828 109.398 229.828C109.398 228.345 62.0907 189.793 60.6123 161.621C78.3525 179.414 99.0493 195.724 115.311 215C124.181 225.379 134.53 229.828 146.356 229.828V256.517H161.14V228.345C162.618 228.345 162.618 228.345 164.097 228.345C162.618 228.345 162.618 226.862 161.14 226.862V215C164.097 217.966 167.053 220.931 170.01 223.897C172.967 226.862 175.923 229.828 178.88 228.345C199.577 226.862 354.803 226.862 375.5 223.897C413.937 219.448 430.199 192.759 452.374 163.103C459.766 151.241 467.158 136.414 473.071 124.552C480.463 106.759 473.071 86 459.766 75.6207ZM112.354 60.7931C104.963 65.2414 97.5709 69.6897 88.7008 74.1379C93.1359 62.2759 100.528 57.8276 112.354 60.7931ZM144.878 213.517C124.181 194.241 103.484 173.483 85.7442 152.724C76.8741 143.828 66.5257 112.69 68.0041 106.759C76.8741 120.103 82.7874 133.448 91.6575 143.828C109.398 163.103 127.138 180.897 146.356 198.69V213.517H144.878ZM359.238 204.621C347.412 206.103 199.577 207.586 189.228 204.621C180.358 203.138 164.097 189.793 156.705 185.345C159.662 185.345 162.618 185.345 167.053 186.828H399.154C387.327 197.207 374.022 203.138 359.238 204.621ZM400.632 160.138C369.587 163.103 204.012 161.621 174.445 161.621C164.097 161.621 155.226 161.621 144.878 161.621C138.965 161.621 125.66 154.207 119.746 151.241C122.703 151.241 128.616 151.241 131.573 151.241C165.575 151.241 334.107 151.241 368.109 151.241C397.675 151.241 425.764 148.276 447.939 127.517C437.591 146.793 421.329 158.655 400.632 160.138ZM230.622 38.5517H217.317L201.055 65.2414H192.185V38.5517H178.88V106.759H192.185V81.5517H201.055L215.839 106.759H229.144V102.31L211.404 72.6552L229.144 43V38.5517H230.622Z" fill="#4E252E" fill-opacity="0.04"/>
</svg>
