<svg width="476" height="258" fill="none" xmlns="http://www.w3.org/2000/svg"><path fill-rule="evenodd" clip-rule="evenodd" d="M366.63 38.552v68.207h13.305V54.862h23.654v51.897h13.305V38.552H366.63zm-36.959-2.966h-2.956c-20.697 0-26.611 14.828-26.611 34.104v5.93c0 17.794 5.914 34.104 26.611 34.104h2.956c20.697 0 26.611-14.827 26.611-34.103V69.69c0-17.793-5.914-34.104-26.611-34.104zm-1.478 56.345c-14.783 0-14.783-8.897-14.783-19.276 0-10.38 0-19.276 14.783-19.276s14.783 8.897 14.783 19.276c0 10.38 0 19.276-14.783 19.276zm-63.569-56.345h-2.957c-20.696 0-26.61 14.828-26.61 34.104v5.93c0 17.794 5.914 34.104 26.61 34.104h2.957c20.697 0 26.61-14.827 26.61-34.103V69.69c0-17.793-5.913-34.104-26.61-34.104zm-1.478 56.345c-14.784 0-14.784-8.897-14.784-19.276 0-10.38 0-19.276 14.784-19.276 14.783 0 14.783 8.897 14.783 19.276 0 10.38 0 19.276-14.783 19.276zm196.62-16.31c-16.262 32.62-42.872 50.413-79.831 50.413H161.14V0H0v258h14.784V14.828h130.094v109.724h-25.132c-20.697 0-23.653-2.966-29.567-23.724-2.956-8.897 0-13.345 5.914-20.759 10.348-11.862 23.653-13.345 38.437-11.862-1.479-11.862-7.392-17.793-19.219-19.276-5.913 0-13.305 0-19.218-1.483-11.827-2.965-22.175 1.483-31.046 8.897C45.83 74.138 44.35 96.379 45.83 120.103v11.863c-1.479 11.862-4.435 23.724-4.435 35.586 1.478 23.724 13.305 41.517 31.045 56.345 7.392 5.931 23.654 5.931 36.959 5.931 0-1.483-47.307-40.035-48.786-68.207 17.74 17.793 38.437 34.103 54.699 53.379 8.87 10.379 19.219 14.828 31.045 14.828v26.689h14.784v-28.172h2.957c-1.479 0-1.479-1.483-2.957-1.483V215l8.87 8.897c2.957 2.965 5.913 5.931 8.87 4.448 20.697-1.483 175.923-1.483 196.62-4.448 38.437-4.449 54.699-31.138 76.874-60.794 7.392-11.862 14.784-26.689 20.697-38.551 7.392-17.793 0-38.552-13.305-48.931zM112.354 60.793c-7.391 4.448-14.783 8.897-23.653 13.345 4.435-11.862 11.827-16.31 23.653-13.345zm32.524 152.724c-20.697-19.276-41.394-40.034-59.134-60.793-8.87-8.896-19.218-40.034-17.74-45.965 8.87 13.344 14.783 26.689 23.653 37.069a956.388 956.388 0 0054.699 54.862v14.827h-1.478zm214.36-8.896c-11.826 1.482-159.661 2.965-170.01 0-8.87-1.483-25.131-14.828-32.523-19.276 2.957 0 5.913 0 10.348 1.483h232.101c-11.827 10.379-25.132 16.31-39.916 17.793zm41.394-44.483c-31.045 2.965-196.62 1.483-226.187 1.483h-29.567c-5.913 0-19.218-7.414-25.132-10.38h248.363c29.566 0 57.655-2.965 79.83-23.724-10.348 19.276-26.61 31.138-47.307 32.621zM230.622 38.552h-13.305l-16.262 26.69h-8.87v-26.69H178.88v68.207h13.305V81.552h8.87l14.784 25.207h13.305v-4.449l-17.74-29.655L229.144 43v-4.448h1.478z" fill="#4E252E" fill-opacity=".04"/></svg>