<svg width="761" height="174" viewBox="0 0 761 174" fill="none" xmlns="http://www.w3.org/2000/svg">
<mask id="mask0" mask-type="alpha" maskUnits="userSpaceOnUse" x="0" y="0" width="761" height="174">
<rect width="761" height="174" fill="#E62D2D"/>
</mask>
<g mask="url(#mask0)">
<path d="M374.031 76L378.617 64.5391H380.188L384.766 76H383.57C383.43 76 383.315 75.9661 383.227 75.8984C383.143 75.8255 383.081 75.737 383.039 75.6328L381.969 72.8672H376.82L375.75 75.6328C375.719 75.7266 375.656 75.8125 375.562 75.8906C375.474 75.9635 375.362 76 375.227 76H374.031ZM377.258 71.7422H381.539L379.734 67.0781C379.677 66.9375 379.62 66.7786 379.562 66.6016C379.505 66.4193 379.448 66.224 379.391 66.0156C379.339 66.224 379.284 66.4219 379.227 66.6094C379.169 66.7917 379.112 66.9505 379.055 67.0859L377.258 71.7422ZM385.32 73.9766C385.32 73.6589 385.406 73.3516 385.578 73.0547C385.755 72.7578 386.042 72.4948 386.438 72.2656C386.833 72.0365 387.346 71.849 387.977 71.7031C388.612 71.5521 389.393 71.4661 390.32 71.4453V70.8125C390.32 70.1823 390.182 69.7083 389.906 69.3906C389.635 69.0677 389.24 68.9062 388.719 68.9062C388.365 68.9062 388.068 68.9505 387.828 69.0391C387.594 69.1276 387.388 69.2266 387.211 69.3359C387.039 69.4401 386.891 69.5365 386.766 69.625C386.641 69.7135 386.518 69.7578 386.398 69.7578C386.305 69.7578 386.221 69.7344 386.148 69.6875C386.081 69.6354 386.023 69.5703 385.977 69.4922L385.719 69.0391C386.167 68.6068 386.648 68.2839 387.164 68.0703C387.68 67.8568 388.253 67.75 388.883 67.75C389.336 67.75 389.737 67.8255 390.086 67.9766C390.44 68.1276 390.737 68.3359 390.977 68.6016C391.221 68.8672 391.404 69.1901 391.523 69.5703C391.648 69.9453 391.711 70.3594 391.711 70.8125V76H391.078C390.938 76 390.831 75.9792 390.758 75.9375C390.685 75.8906 390.625 75.7995 390.578 75.6641L390.422 74.9062C390.208 75.099 389.997 75.2708 389.789 75.4219C389.586 75.5729 389.372 75.7005 389.148 75.8047C388.93 75.9089 388.693 75.987 388.438 76.0391C388.188 76.0964 387.906 76.125 387.594 76.125C387.281 76.125 386.984 76.0833 386.703 76C386.427 75.9115 386.188 75.7786 385.984 75.6016C385.781 75.4245 385.62 75.2031 385.5 74.9375C385.38 74.6667 385.32 74.3464 385.32 73.9766ZM386.688 73.9141C386.688 74.1276 386.721 74.3125 386.789 74.4688C386.857 74.6198 386.951 74.7448 387.07 74.8438C387.19 74.9427 387.331 75.0156 387.492 75.0625C387.659 75.1042 387.836 75.125 388.023 75.125C388.273 75.125 388.503 75.1016 388.711 75.0547C388.919 75.0026 389.115 74.9297 389.297 74.8359C389.479 74.7422 389.654 74.6276 389.82 74.4922C389.992 74.3568 390.159 74.2031 390.32 74.0312V72.3516C389.664 72.3724 389.104 72.4245 388.641 72.5078C388.177 72.5911 387.799 72.7005 387.508 72.8359C387.221 72.9661 387.013 73.1224 386.883 73.3047C386.753 73.487 386.688 73.6901 386.688 73.9141ZM398.305 76V64.5391H405.719V65.7578H399.852V69.4688H402.086C402.784 69.4688 403.385 69.5469 403.891 69.7031C404.396 69.8542 404.812 70.0677 405.141 70.3438C405.469 70.6146 405.711 70.9401 405.867 71.3203C406.029 71.7005 406.109 72.1146 406.109 72.5625C406.109 73.0885 406.018 73.5651 405.836 73.9922C405.659 74.4141 405.398 74.776 405.055 75.0781C404.711 75.375 404.289 75.6042 403.789 75.7656C403.289 75.9219 402.719 76 402.078 76H398.305ZM399.852 74.7656H402.078C402.521 74.7656 402.901 74.7161 403.219 74.6172C403.536 74.513 403.794 74.3724 403.992 74.1953C404.19 74.0182 404.336 73.8047 404.43 73.5547C404.523 73.2995 404.57 73.0182 404.57 72.7109C404.57 72.3932 404.523 72.1094 404.43 71.8594C404.336 71.6094 404.19 71.3984 403.992 71.2266C403.794 71.0547 403.536 70.9245 403.219 70.8359C402.906 70.7474 402.529 70.7031 402.086 70.7031H399.852V74.7656ZM407.531 70.7812C407.531 69.9271 407.607 69.1432 407.758 68.4297C407.914 67.7161 408.164 67.0964 408.508 66.5703C408.852 66.0391 409.297 65.612 409.844 65.2891C410.391 64.9661 411.057 64.7708 411.844 64.7031L414.734 64.4531L414.82 65.1953C414.836 65.362 414.81 65.5 414.742 65.6094C414.68 65.7188 414.565 65.7786 414.398 65.7891L411.961 65.9922C411.419 66.0391 410.953 66.1589 410.562 66.3516C410.177 66.5443 409.857 66.8073 409.602 67.1406C409.346 67.4688 409.154 67.862 409.023 68.3203C408.898 68.7734 408.826 69.2891 408.805 69.8672C408.935 69.612 409.099 69.3828 409.297 69.1797C409.5 68.9714 409.732 68.7943 409.992 68.6484C410.253 68.4974 410.536 68.3854 410.844 68.3125C411.151 68.2344 411.479 68.1953 411.828 68.1953C412.365 68.1953 412.846 68.2891 413.273 68.4766C413.706 68.6641 414.073 68.9323 414.375 69.2812C414.677 69.625 414.906 70.0417 415.062 70.5312C415.224 71.0208 415.305 71.5599 415.305 72.1484C415.305 72.7526 415.211 73.2995 415.023 73.7891C414.841 74.2786 414.578 74.6953 414.234 75.0391C413.896 75.3828 413.487 75.6484 413.008 75.8359C412.534 76.0182 412 76.1094 411.406 76.1094C410.865 76.1094 410.357 76.0208 409.883 75.8438C409.409 75.6615 408.997 75.362 408.648 74.9453C408.305 74.5286 408.031 73.9818 407.828 73.3047C407.63 72.6224 407.531 71.7812 407.531 70.7812ZM409.023 71.9531C409.023 72.4375 409.073 72.8724 409.172 73.2578C409.276 73.638 409.427 73.9635 409.625 74.2344C409.828 74.5 410.076 74.7031 410.367 74.8438C410.664 74.9844 411.01 75.0547 411.406 75.0547C412.208 75.0547 412.812 74.8021 413.219 74.2969C413.63 73.7865 413.836 73.0703 413.836 72.1484C413.836 71.237 413.638 70.526 413.242 70.0156C412.852 69.5052 412.266 69.25 411.484 69.25C411.104 69.25 410.76 69.3099 410.453 69.4297C410.151 69.5495 409.893 69.724 409.68 69.9531C409.471 70.1823 409.31 70.4661 409.195 70.8047C409.081 71.138 409.023 71.5208 409.023 71.9531ZM421.539 76V64.5391H425.195C425.898 64.5391 426.505 64.6094 427.016 64.75C427.526 64.8854 427.945 65.0807 428.273 65.3359C428.602 65.5911 428.841 65.9036 428.992 66.2734C429.148 66.6432 429.227 67.0625 429.227 67.5312C429.227 67.8125 429.182 68.0833 429.094 68.3438C429.01 68.6042 428.88 68.8464 428.703 69.0703C428.526 69.2943 428.302 69.4948 428.031 69.6719C427.766 69.849 427.451 69.9922 427.086 70.1016C427.924 70.2682 428.557 70.5703 428.984 71.0078C429.411 71.4453 429.625 72.0208 429.625 72.7344C429.625 73.2188 429.534 73.6615 429.352 74.0625C429.174 74.4635 428.914 74.8099 428.57 75.1016C428.227 75.388 427.802 75.6094 427.297 75.7656C426.797 75.9219 426.229 76 425.594 76H421.539ZM423.086 74.7656H425.562C426.005 74.7656 426.385 74.7161 426.703 74.6172C427.026 74.513 427.289 74.3698 427.492 74.1875C427.701 74.0052 427.852 73.7865 427.945 73.5312C428.044 73.276 428.094 72.9974 428.094 72.6953C428.094 72.1016 427.883 71.6328 427.461 71.2891C427.039 70.9453 426.406 70.7734 425.562 70.7734H423.086V74.7656ZM423.086 69.6719H425.133C425.57 69.6719 425.951 69.625 426.273 69.5312C426.596 69.4323 426.862 69.2995 427.07 69.1328C427.284 68.9609 427.44 68.7526 427.539 68.5078C427.643 68.263 427.695 67.9974 427.695 67.7109C427.695 67.0339 427.492 66.5391 427.086 66.2266C426.68 65.9141 426.049 65.7578 425.195 65.7578H423.086V69.6719ZM431.359 76V67.8984H434.328C434.828 67.8984 435.258 67.9505 435.617 68.0547C435.977 68.1536 436.271 68.2891 436.5 68.4609C436.729 68.6328 436.896 68.8359 437 69.0703C437.109 69.3047 437.164 69.5547 437.164 69.8203C437.164 69.9974 437.138 70.1823 437.086 70.375C437.039 70.5677 436.956 70.7526 436.836 70.9297C436.716 71.1068 436.552 71.2656 436.344 71.4062C436.141 71.5469 435.885 71.6562 435.578 71.7344C436.193 71.8385 436.669 72.0547 437.008 72.3828C437.346 72.7057 437.516 73.1302 437.516 73.6562C437.516 74.0521 437.435 74.3958 437.273 74.6875C437.117 74.974 436.901 75.2161 436.625 75.4141C436.354 75.612 436.034 75.7604 435.664 75.8594C435.299 75.9531 434.906 76 434.484 76H431.359ZM432.727 75H434.477C435.008 75 435.427 74.8776 435.734 74.6328C436.047 74.3828 436.203 74.0417 436.203 73.6094C436.203 73.4167 436.172 73.2422 436.109 73.0859C436.052 72.9297 435.956 72.7917 435.82 72.6719C435.69 72.5521 435.513 72.4609 435.289 72.3984C435.07 72.3359 434.802 72.3047 434.484 72.3047H432.727V75ZM432.727 71.3984H434.289C434.523 71.3984 434.74 71.3672 434.938 71.3047C435.141 71.237 435.312 71.1432 435.453 71.0234C435.599 70.9036 435.711 70.7604 435.789 70.5938C435.872 70.4219 435.914 70.2344 435.914 70.0312C435.914 69.8802 435.888 69.7344 435.836 69.5938C435.784 69.4531 435.693 69.3281 435.562 69.2188C435.432 69.1094 435.263 69.0234 435.055 68.9609C434.852 68.8932 434.596 68.8594 434.289 68.8594H432.727V71.3984ZM443.727 76V64.5391H450.633V65.7578H445.281V76H443.727ZM450.125 76V67.8984H455.383V68.9844H451.562V76H450.125ZM459.812 74.7812H460.984C461.151 74.7031 461.315 74.5755 461.477 74.3984C461.643 74.2161 461.802 73.9583 461.953 73.625C462.104 73.2917 462.247 72.8724 462.383 72.3672C462.518 71.862 462.641 71.2422 462.75 70.5078C462.859 69.7734 462.953 68.9167 463.031 67.9375C463.109 66.9531 463.172 65.8203 463.219 64.5391H470.023V74.7812H471.898V78.3281C471.898 78.4688 471.852 78.5807 471.758 78.6641C471.669 78.7474 471.549 78.7891 471.398 78.7891H470.477V76H461.242V78.3281C461.242 78.4688 461.195 78.5807 461.102 78.6641C461.008 78.7474 460.888 78.7891 460.742 78.7891H459.812V74.7812ZM462.805 74.7812H468.461V65.7578H464.672C464.609 67.0703 464.518 68.2214 464.398 69.2109C464.279 70.1953 464.138 71.0495 463.977 71.7734C463.815 72.4974 463.635 73.1042 463.438 73.5938C463.24 74.0781 463.029 74.474 462.805 74.7812ZM472.469 74.9609H472.812C472.995 74.9557 473.174 74.9167 473.352 74.8438C473.529 74.7708 473.698 74.6406 473.859 74.4531C474.026 74.2656 474.182 74.0078 474.328 73.6797C474.474 73.3464 474.607 72.9193 474.727 72.3984C474.846 71.8776 474.951 71.2474 475.039 70.5078C475.133 69.7682 475.203 68.8984 475.25 67.8984H480.375V74.9219H481.859V78.3516C481.859 78.4922 481.82 78.599 481.742 78.6719C481.664 78.75 481.562 78.7891 481.438 78.7891H480.57V76H473.75V78.3828C473.75 78.4818 473.719 78.5729 473.656 78.6562C473.599 78.7448 473.5 78.7891 473.359 78.7891H472.469V74.9609ZM474.977 74.9609H478.992V69.0156H476.422C476.37 69.849 476.294 70.5859 476.195 71.2266C476.102 71.8672 475.992 72.4297 475.867 72.9141C475.742 73.3932 475.604 73.8021 475.453 74.1406C475.302 74.474 475.143 74.7474 474.977 74.9609ZM487.727 76V64.5391H494.797V65.7969H489.281V69.6094H493.742V70.8203H489.281V74.7344H494.805L494.797 76H487.727ZM495.773 71.7812C495.773 71.2135 495.859 70.6849 496.031 70.1953C496.208 69.7057 496.458 69.2812 496.781 68.9219C497.104 68.5625 497.5 68.2812 497.969 68.0781C498.438 67.8698 498.966 67.7656 499.555 67.7656C500.039 67.7656 500.487 67.849 500.898 68.0156C501.315 68.1771 501.674 68.4115 501.977 68.7188C502.279 69.026 502.513 69.4062 502.68 69.8594C502.852 70.3073 502.938 70.8177 502.938 71.3906C502.938 71.6146 502.914 71.7656 502.867 71.8438C502.82 71.9167 502.729 71.9531 502.594 71.9531H497.18C497.19 72.4635 497.258 72.9089 497.383 73.2891C497.513 73.6693 497.69 73.987 497.914 74.2422C498.138 74.4922 498.404 74.6797 498.711 74.8047C499.023 74.9297 499.372 74.9922 499.758 74.9922C500.117 74.9922 500.424 74.9505 500.68 74.8672C500.94 74.7839 501.164 74.6953 501.352 74.6016C501.539 74.5026 501.695 74.4141 501.82 74.3359C501.945 74.2526 502.052 74.2109 502.141 74.2109C502.26 74.2109 502.352 74.2552 502.414 74.3438L502.812 74.8672C502.635 75.0807 502.424 75.2656 502.18 75.4219C501.935 75.5781 501.672 75.7083 501.391 75.8125C501.115 75.9115 500.826 75.9844 500.523 76.0312C500.227 76.0833 499.932 76.1094 499.641 76.1094C499.078 76.1094 498.56 76.0156 498.086 75.8281C497.617 75.6406 497.211 75.3646 496.867 75C496.523 74.6302 496.255 74.1771 496.062 73.6406C495.87 73.099 495.773 72.4792 495.773 71.7812ZM497.227 71.0625H501.664C501.664 70.7344 501.617 70.4323 501.523 70.1562C501.43 69.8802 501.292 69.6432 501.109 69.4453C500.932 69.2422 500.714 69.0859 500.453 68.9766C500.198 68.8672 499.909 68.8125 499.586 68.8125C498.898 68.8125 498.357 69.013 497.961 69.4141C497.57 69.8099 497.326 70.3594 497.227 71.0625ZM509.117 76V64.5391H516.188V65.7969H510.672V69.6094H515.133V70.8203H510.672V74.7344H516.195L516.188 76H509.117ZM510.203 62.6719C510.203 62.5469 510.227 62.4297 510.273 62.3203C510.32 62.2109 510.383 62.1172 510.461 62.0391C510.544 61.9609 510.638 61.8984 510.742 61.8516C510.846 61.7995 510.956 61.7734 511.07 61.7734C511.19 61.7734 511.302 61.7995 511.406 61.8516C511.516 61.8984 511.612 61.9609 511.695 62.0391C511.779 62.1172 511.844 62.2109 511.891 62.3203C511.938 62.4297 511.961 62.5469 511.961 62.6719C511.961 62.7917 511.938 62.9036 511.891 63.0078C511.844 63.1068 511.779 63.1979 511.695 63.2812C511.612 63.3594 511.516 63.4219 511.406 63.4688C511.297 63.5156 511.185 63.5391 511.07 63.5391C510.956 63.5391 510.846 63.5156 510.742 63.4688C510.638 63.4219 510.544 63.3594 510.461 63.2812C510.383 63.1979 510.32 63.1068 510.273 63.0078C510.227 62.9036 510.203 62.7917 510.203 62.6719ZM513.547 62.6719C513.547 62.5469 513.568 62.4297 513.609 62.3203C513.656 62.2109 513.719 62.1172 513.797 62.0391C513.88 61.9609 513.974 61.8984 514.078 61.8516C514.188 61.7995 514.305 61.7734 514.43 61.7734C514.549 61.7734 514.661 61.7995 514.766 61.8516C514.87 61.8984 514.961 61.9609 515.039 62.0391C515.122 62.1172 515.188 62.2109 515.234 62.3203C515.281 62.4297 515.305 62.5469 515.305 62.6719C515.305 62.7917 515.281 62.9036 515.234 63.0078C515.188 63.1068 515.122 63.1979 515.039 63.2812C514.961 63.3594 514.867 63.4219 514.758 63.4688C514.654 63.5156 514.544 63.5391 514.43 63.5391C514.305 63.5391 514.188 63.5156 514.078 63.4688C513.974 63.4219 513.88 63.3594 513.797 63.2812C513.719 63.1979 513.656 63.1068 513.609 63.0078C513.568 62.9036 513.547 62.7917 513.547 62.6719ZM517.164 71.7812C517.164 71.2135 517.25 70.6849 517.422 70.1953C517.599 69.7057 517.849 69.2812 518.172 68.9219C518.495 68.5625 518.891 68.2812 519.359 68.0781C519.828 67.8698 520.357 67.7656 520.945 67.7656C521.43 67.7656 521.878 67.849 522.289 68.0156C522.706 68.1771 523.065 68.4115 523.367 68.7188C523.669 69.026 523.904 69.4062 524.07 69.8594C524.242 70.3073 524.328 70.8177 524.328 71.3906C524.328 71.6146 524.305 71.7656 524.258 71.8438C524.211 71.9167 524.12 71.9531 523.984 71.9531H518.57C518.581 72.4635 518.648 72.9089 518.773 73.2891C518.904 73.6693 519.081 73.987 519.305 74.2422C519.529 74.4922 519.794 74.6797 520.102 74.8047C520.414 74.9297 520.763 74.9922 521.148 74.9922C521.508 74.9922 521.815 74.9505 522.07 74.8672C522.331 74.7839 522.555 74.6953 522.742 74.6016C522.93 74.5026 523.086 74.4141 523.211 74.3359C523.336 74.2526 523.443 74.2109 523.531 74.2109C523.651 74.2109 523.742 74.2552 523.805 74.3438L524.203 74.8672C524.026 75.0807 523.815 75.2656 523.57 75.4219C523.326 75.5781 523.062 75.7083 522.781 75.8125C522.505 75.9115 522.216 75.9844 521.914 76.0312C521.617 76.0833 521.323 76.1094 521.031 76.1094C520.469 76.1094 519.951 76.0156 519.477 75.8281C519.008 75.6406 518.602 75.3646 518.258 75C517.914 74.6302 517.646 74.1771 517.453 73.6406C517.26 73.099 517.164 72.4792 517.164 71.7812ZM518.555 65.6875C518.555 65.5625 518.578 65.4453 518.625 65.3359C518.677 65.2266 518.745 65.1302 518.828 65.0469C518.911 64.9635 519.005 64.8984 519.109 64.8516C519.214 64.7995 519.326 64.7734 519.445 64.7734C519.57 64.7734 519.688 64.7995 519.797 64.8516C519.906 64.8984 520.003 64.9635 520.086 65.0469C520.169 65.1302 520.234 65.2266 520.281 65.3359C520.333 65.4453 520.359 65.5625 520.359 65.6875C520.359 65.8125 520.333 65.9297 520.281 66.0391C520.234 66.1432 520.169 66.2344 520.086 66.3125C520.003 66.3906 519.906 66.4557 519.797 66.5078C519.688 66.5547 519.57 66.5781 519.445 66.5781C519.326 66.5781 519.214 66.5547 519.109 66.5078C519.005 66.4557 518.911 66.3906 518.828 66.3125C518.745 66.2344 518.677 66.1432 518.625 66.0391C518.578 65.9297 518.555 65.8125 518.555 65.6875ZM518.617 71.0625H523.055C523.055 70.7344 523.008 70.4323 522.914 70.1562C522.82 69.8802 522.682 69.6432 522.5 69.4453C522.323 69.2422 522.104 69.0859 521.844 68.9766C521.589 68.8672 521.299 68.8125 520.977 68.8125C520.289 68.8125 519.747 69.013 519.352 69.4141C518.961 69.8099 518.716 70.3594 518.617 71.0625ZM521.602 65.6875C521.602 65.5625 521.625 65.4453 521.672 65.3359C521.724 65.2266 521.789 65.1302 521.867 65.0469C521.951 64.9635 522.047 64.8984 522.156 64.8516C522.266 64.7995 522.38 64.7734 522.5 64.7734C522.625 64.7734 522.742 64.7995 522.852 64.8516C522.961 64.8984 523.055 64.9635 523.133 65.0469C523.216 65.1302 523.281 65.2266 523.328 65.3359C523.38 65.4453 523.406 65.5625 523.406 65.6875C523.406 65.8125 523.38 65.9297 523.328 66.0391C523.281 66.1432 523.216 66.2344 523.133 66.3125C523.055 66.3906 522.961 66.4557 522.852 66.5078C522.742 66.5547 522.625 66.5781 522.5 66.5781C522.375 66.5781 522.258 66.5547 522.148 66.5078C522.044 66.4557 521.951 66.3906 521.867 66.3125C521.789 66.2344 521.724 66.1432 521.672 66.0391C521.625 65.9297 521.602 65.8125 521.602 65.6875ZM529.18 76L532.594 71.0312C532.766 70.7552 532.951 70.5365 533.148 70.375C533.346 70.2083 533.573 70.0859 533.828 70.0078C533.604 69.9297 533.411 69.8177 533.25 69.6719C533.094 69.526 532.94 69.3411 532.789 69.1172L529.453 64.5391H530.664C530.831 64.5391 530.982 64.5807 531.117 64.6641C531.253 64.7422 531.362 64.8542 531.445 65L534.32 68.9766C534.487 69.2109 534.661 69.3672 534.844 69.4453C535.026 69.5234 535.24 69.5625 535.484 69.5625H536.625V64.5391H538.086V69.5625H539.234C539.474 69.5625 539.682 69.5234 539.859 69.4453C540.042 69.3672 540.219 69.2109 540.391 68.9766L543.266 65C543.349 64.8542 543.458 64.7422 543.594 64.6641C543.734 64.5807 543.885 64.5391 544.047 64.5391H545.266L541.922 69.1172C541.771 69.3411 541.615 69.526 541.453 69.6719C541.297 69.8177 541.102 69.9297 540.867 70.0078C541.128 70.0859 541.359 70.2083 541.562 70.375C541.766 70.5365 541.953 70.7552 542.125 71.0312L545.523 76H544.492C544.268 76 544.073 75.9505 543.906 75.8516C543.745 75.7526 543.612 75.6172 543.508 75.4453L540.609 71.3828C540.464 71.1589 540.297 70.9974 540.109 70.8984C539.927 70.7995 539.695 70.75 539.414 70.75H538.086V76H536.625V70.75H535.305C535.018 70.75 534.781 70.7995 534.594 70.8984C534.411 70.9974 534.247 71.1589 534.102 71.3828L531.195 75.4453C531.102 75.6172 530.971 75.7526 530.805 75.8516C530.643 75.9505 530.451 76 530.227 76H529.18ZM545.859 76L547.984 72.6484C548.125 72.4193 548.281 72.2318 548.453 72.0859C548.625 71.9401 548.839 71.8307 549.094 71.7578C548.891 71.6901 548.719 71.5938 548.578 71.4688C548.443 71.3438 548.315 71.1823 548.195 70.9844L546.078 67.8984H547.203C547.344 67.8984 547.469 67.9349 547.578 68.0078C547.688 68.0755 547.776 68.1719 547.844 68.2969L549.562 70.8594C549.682 71.0365 549.823 71.1719 549.984 71.2656C550.151 71.3542 550.346 71.3984 550.57 71.3984H551.266V67.8984H552.648V71.3984H553.328C553.781 71.3984 554.122 71.2188 554.352 70.8594L556.07 68.2969C556.133 68.1719 556.221 68.0755 556.336 68.0078C556.456 67.9349 556.583 67.8984 556.719 67.8984H557.844L555.727 70.9844C555.596 71.1823 555.461 71.3438 555.32 71.4688C555.185 71.5938 555.016 71.6901 554.812 71.7578C555.068 71.8255 555.284 71.9349 555.461 72.0859C555.638 72.2318 555.797 72.4193 555.938 72.6484L558.062 76H557.07C556.815 76 556.62 75.9609 556.484 75.8828C556.349 75.7995 556.245 75.6745 556.172 75.5078L554.594 72.9844C554.333 72.5677 553.956 72.3594 553.461 72.3594H552.648V76.0078H551.266V72.3594H550.453C550.214 72.3594 549.997 72.4141 549.805 72.5234C549.612 72.6276 549.453 72.7812 549.328 72.9844L547.75 75.5078C547.672 75.6797 547.565 75.8047 547.43 75.8828C547.294 75.9609 547.099 76 546.844 76H545.859ZM562.695 74.6172L563.141 73.8828C563.182 73.8255 563.234 73.776 563.297 73.7344C563.365 73.6927 563.435 73.6719 563.508 73.6719C563.622 73.6719 563.755 73.7318 563.906 73.8516C564.062 73.9714 564.26 74.1042 564.5 74.25C564.745 74.3906 565.039 74.5208 565.383 74.6406C565.727 74.7604 566.146 74.8203 566.641 74.8203C567.062 74.8203 567.44 74.7708 567.773 74.6719C568.107 74.5729 568.385 74.4271 568.609 74.2344C568.839 74.0417 569.013 73.8073 569.133 73.5312C569.253 73.25 569.312 72.9375 569.312 72.5938C569.312 72.2969 569.255 72.0234 569.141 71.7734C569.026 71.5182 568.859 71.3021 568.641 71.125C568.422 70.9479 568.154 70.8099 567.836 70.7109C567.523 70.612 567.169 70.5625 566.773 70.5625H565.211V69.2891H566.711C567.034 69.2891 567.336 69.25 567.617 69.1719C567.898 69.0885 568.138 68.9714 568.336 68.8203C568.539 68.6641 568.698 68.474 568.812 68.25C568.927 68.026 568.984 67.7682 568.984 67.4766C568.984 67.2161 568.93 66.9766 568.82 66.7578C568.716 66.5391 568.562 66.3516 568.359 66.1953C568.156 66.0391 567.906 65.9193 567.609 65.8359C567.318 65.7474 566.987 65.7031 566.617 65.7031C566.185 65.7031 565.815 65.75 565.508 65.8438C565.206 65.9323 564.951 66.0312 564.742 66.1406C564.534 66.25 564.365 66.3516 564.234 66.4453C564.104 66.5339 563.992 66.5781 563.898 66.5781C563.815 66.5781 563.745 66.5599 563.688 66.5234C563.635 66.4818 563.586 66.4193 563.539 66.3359L563.156 65.6094C563.589 65.224 564.089 64.9297 564.656 64.7266C565.229 64.5234 565.88 64.4219 566.609 64.4219C567.203 64.4219 567.734 64.4948 568.203 64.6406C568.677 64.7865 569.078 64.9896 569.406 65.25C569.74 65.5104 569.995 65.8203 570.172 66.1797C570.349 66.5339 570.438 66.9245 570.438 67.3516C570.438 67.9297 570.294 68.4375 570.008 68.875C569.727 69.3125 569.326 69.6536 568.805 69.8984C569.096 70.0234 569.362 70.1745 569.602 70.3516C569.846 70.5234 570.055 70.7214 570.227 70.9453C570.398 71.1693 570.531 71.4141 570.625 71.6797C570.719 71.9453 570.766 72.2266 570.766 72.5234C570.766 73.0234 570.672 73.4922 570.484 73.9297C570.302 74.3672 570.031 74.7474 569.672 75.0703C569.318 75.3932 568.883 75.6484 568.367 75.8359C567.852 76.0182 567.263 76.1094 566.602 76.1094C565.779 76.1094 565.039 75.9766 564.383 75.7109C563.727 75.4401 563.164 75.0755 562.695 74.6172ZM571.695 74.8672L572.094 74.3438C572.156 74.2552 572.247 74.2109 572.367 74.2109C572.461 74.2109 572.562 74.2526 572.672 74.3359C572.786 74.4141 572.922 74.5052 573.078 74.6094C573.24 74.7083 573.435 74.7995 573.664 74.8828C573.898 74.9661 574.185 75.0078 574.523 75.0078C574.815 75.0078 575.076 74.9714 575.305 74.8984C575.539 74.8255 575.737 74.7266 575.898 74.6016C576.06 74.4714 576.182 74.3203 576.266 74.1484C576.349 73.9714 576.391 73.7786 576.391 73.5703C576.391 73.1693 576.224 72.8464 575.891 72.6016C575.557 72.3568 575.052 72.2344 574.375 72.2344H573.461V71.2891H574.375C574.667 71.2891 574.93 71.2578 575.164 71.1953C575.404 71.1328 575.604 71.0495 575.766 70.9453C575.932 70.8359 576.057 70.7057 576.141 70.5547C576.229 70.4036 576.273 70.2396 576.273 70.0625C576.273 69.901 576.237 69.75 576.164 69.6094C576.091 69.4635 575.982 69.3385 575.836 69.2344C575.69 69.125 575.508 69.0391 575.289 68.9766C575.07 68.9141 574.815 68.8828 574.523 68.8828C574.206 68.8828 573.935 68.9141 573.711 68.9766C573.487 69.0391 573.299 69.1094 573.148 69.1875C572.997 69.2604 572.872 69.3281 572.773 69.3906C572.68 69.4531 572.599 69.4844 572.531 69.4844C572.464 69.4844 572.406 69.4714 572.359 69.4453C572.312 69.4193 572.263 69.3646 572.211 69.2812L571.883 68.7266C572.185 68.4401 572.552 68.2083 572.984 68.0312C573.422 67.8542 573.948 67.7656 574.562 67.7656C575.052 67.7656 575.482 67.8255 575.852 67.9453C576.227 68.0651 576.542 68.224 576.797 68.4219C577.052 68.6198 577.245 68.8464 577.375 69.1016C577.505 69.3516 577.57 69.6146 577.57 69.8906C577.57 70.0521 577.544 70.2214 577.492 70.3984C577.44 70.5703 577.354 70.737 577.234 70.8984C577.12 71.0547 576.969 71.2031 576.781 71.3438C576.599 71.4844 576.367 71.5964 576.086 71.6797C576.602 71.8359 577.008 72.0859 577.305 72.4297C577.602 72.7682 577.75 73.1849 577.75 73.6797C577.75 74.0547 577.664 74.3932 577.492 74.6953C577.326 74.9922 577.096 75.2474 576.805 75.4609C576.518 75.6693 576.185 75.8307 575.805 75.9453C575.424 76.0547 575.026 76.1094 574.609 76.1094C574.349 76.1094 574.083 76.0859 573.812 76.0391C573.542 75.9922 573.279 75.9167 573.023 75.8125C572.768 75.7083 572.526 75.5807 572.297 75.4297C572.073 75.2734 571.872 75.0859 571.695 74.8672ZM375.461 107V95.5391H377.016V103.688C377.016 103.917 377.01 104.156 377 104.406C376.99 104.651 376.966 104.917 376.93 105.203C377.018 104.958 377.115 104.734 377.219 104.531C377.323 104.323 377.427 104.135 377.531 103.969L382.906 96.0234C382.979 95.8984 383.073 95.7865 383.188 95.6875C383.307 95.5885 383.445 95.5391 383.602 95.5391H384.75V107H383.203V98.8594C383.203 98.6354 383.208 98.3984 383.219 98.1484C383.229 97.8984 383.253 97.6354 383.289 97.3594C383.201 97.599 383.104 97.8229 383 98.0312C382.896 98.2344 382.792 98.4141 382.688 98.5703L377.312 106.516C377.24 106.641 377.143 106.753 377.023 106.852C376.909 106.951 376.773 107 376.617 107H375.461ZM387.219 107.008V98.9062H388.656V104.406C388.656 104.505 388.651 104.617 388.641 104.742C388.63 104.862 388.617 104.982 388.602 105.102C388.643 104.997 388.688 104.904 388.734 104.82C388.786 104.732 388.836 104.651 388.883 104.578C388.888 104.568 388.948 104.484 389.062 104.328C389.182 104.167 389.333 103.961 389.516 103.711C389.703 103.456 389.914 103.169 390.148 102.852C390.383 102.534 390.62 102.211 390.859 101.883C391.427 101.112 392.073 100.237 392.797 99.2578C392.854 99.1745 392.927 99.0938 393.016 99.0156C393.109 98.9375 393.211 98.8984 393.32 98.8984H394.172V107H392.75V101.492C392.75 101.393 392.755 101.284 392.766 101.164C392.776 101.039 392.789 100.914 392.805 100.789C392.758 100.893 392.708 100.992 392.656 101.086C392.604 101.174 392.555 101.255 392.508 101.328C392.497 101.339 392.435 101.424 392.32 101.586C392.206 101.742 392.055 101.948 391.867 102.203C391.68 102.453 391.469 102.737 391.234 103.055C391 103.372 390.763 103.695 390.523 104.023C389.956 104.794 389.315 105.669 388.602 106.648C388.544 106.732 388.469 106.812 388.375 106.891C388.286 106.969 388.19 107.008 388.086 107.008H387.219ZM400.852 107V95.5391H402.406V103.688C402.406 103.917 402.401 104.156 402.391 104.406C402.38 104.651 402.357 104.917 402.32 105.203C402.409 104.958 402.505 104.734 402.609 104.531C402.714 104.323 402.818 104.135 402.922 103.969L408.297 96.0234C408.37 95.8984 408.464 95.7865 408.578 95.6875C408.698 95.5885 408.836 95.5391 408.992 95.5391H410.141V107H408.594V98.8594C408.594 98.6354 408.599 98.3984 408.609 98.1484C408.62 97.8984 408.643 97.6354 408.68 97.3594C408.591 97.599 408.495 97.8229 408.391 98.0312C408.286 98.2344 408.182 98.4141 408.078 98.5703L402.703 106.516C402.63 106.641 402.534 106.753 402.414 106.852C402.299 106.951 402.164 107 402.008 107H400.852ZM403.211 93.1172C403.211 93.0026 403.237 92.9036 403.289 92.8203C403.341 92.7318 403.419 92.6875 403.523 92.6875H404.352C404.352 92.9427 404.372 93.1589 404.414 93.3359C404.456 93.5078 404.523 93.6484 404.617 93.7578C404.711 93.862 404.833 93.9375 404.984 93.9844C405.135 94.0312 405.32 94.0547 405.539 94.0547C405.758 94.0547 405.94 94.0312 406.086 93.9844C406.237 93.9375 406.359 93.862 406.453 93.7578C406.547 93.6484 406.615 93.5078 406.656 93.3359C406.698 93.1589 406.719 92.9427 406.719 92.6875H407.555C407.654 92.6875 407.729 92.7318 407.781 92.8203C407.839 92.9089 407.867 93.0078 407.867 93.1172C407.867 93.6484 407.661 94.0599 407.25 94.3516C406.839 94.638 406.268 94.7812 405.539 94.7812C404.81 94.7812 404.24 94.638 403.828 94.3516C403.417 94.0651 403.211 93.6536 403.211 93.1172ZM412.609 107.008V98.9062H414.047V104.406C414.047 104.505 414.042 104.617 414.031 104.742C414.021 104.862 414.008 104.982 413.992 105.102C414.034 104.997 414.078 104.904 414.125 104.82C414.177 104.732 414.227 104.651 414.273 104.578C414.279 104.568 414.339 104.484 414.453 104.328C414.573 104.167 414.724 103.961 414.906 103.711C415.094 103.456 415.305 103.169 415.539 102.852C415.773 102.534 416.01 102.211 416.25 101.883C416.818 101.112 417.464 100.237 418.188 99.2578C418.245 99.1745 418.318 99.0938 418.406 99.0156C418.5 98.9375 418.602 98.8984 418.711 98.8984H419.562V107H418.141V101.492C418.141 101.393 418.146 101.284 418.156 101.164C418.167 101.039 418.18 100.914 418.195 100.789C418.148 100.893 418.099 100.992 418.047 101.086C417.995 101.174 417.945 101.255 417.898 101.328C417.888 101.339 417.826 101.424 417.711 101.586C417.596 101.742 417.445 101.948 417.258 102.203C417.07 102.453 416.859 102.737 416.625 103.055C416.391 103.372 416.154 103.695 415.914 104.023C415.346 104.794 414.706 105.669 413.992 106.648C413.935 106.732 413.859 106.812 413.766 106.891C413.677 106.969 413.581 107.008 413.477 107.008H412.609ZM413.852 95.9688C413.852 95.8646 413.878 95.7682 413.93 95.6797C413.982 95.5859 414.06 95.5391 414.164 95.5391H414.992C414.992 95.7943 415.013 96.0104 415.055 96.1875C415.096 96.3594 415.164 96.5026 415.258 96.6172C415.352 96.7266 415.474 96.8073 415.625 96.8594C415.776 96.9115 415.961 96.9375 416.18 96.9375C416.398 96.9375 416.581 96.9115 416.727 96.8594C416.878 96.8073 417 96.7266 417.094 96.6172C417.188 96.5026 417.255 96.3594 417.297 96.1875C417.339 96.0104 417.359 95.7943 417.359 95.5391H418.195C418.294 95.5391 418.37 95.5833 418.422 95.6719C418.479 95.7604 418.508 95.8594 418.508 95.9688C418.508 96.2344 418.453 96.474 418.344 96.6875C418.24 96.901 418.086 97.0833 417.883 97.2344C417.685 97.3854 417.44 97.5026 417.148 97.5859C416.862 97.6641 416.539 97.7031 416.18 97.7031C415.815 97.7031 415.487 97.6641 415.195 97.5859C414.909 97.5026 414.667 97.3854 414.469 97.2344C414.271 97.0833 414.117 96.901 414.008 96.6875C413.904 96.474 413.852 96.2344 413.852 95.9688ZM426.242 107V95.5391H427.789V100.562H428.984C429.224 100.562 429.427 100.526 429.594 100.453C429.76 100.375 429.927 100.227 430.094 100.008L433.094 95.9766C433.172 95.8464 433.268 95.7422 433.383 95.6641C433.497 95.5807 433.633 95.5391 433.789 95.5391H435.094L431.633 100.25C431.497 100.443 431.344 100.602 431.172 100.727C431.005 100.846 430.823 100.94 430.625 101.008C430.906 101.081 431.143 101.201 431.336 101.367C431.529 101.529 431.714 101.753 431.891 102.039L435.398 107H434.008C433.852 107 433.719 106.958 433.609 106.875C433.5 106.792 433.398 106.672 433.305 106.516L430.266 102.312C430.125 102.104 429.974 101.958 429.812 101.875C429.656 101.792 429.44 101.75 429.164 101.75H427.789V107H426.242ZM436.516 107.008V98.8984H437.953V102.398H438.719C439.146 102.398 439.479 102.219 439.719 101.859L441.438 99.2969C441.51 99.1771 441.609 99.0807 441.734 99.0078C441.859 98.9349 441.99 98.8984 442.125 98.8984H443.242L441.133 101.984C441.003 102.182 440.867 102.344 440.727 102.469C440.591 102.594 440.422 102.69 440.219 102.758C440.474 102.826 440.69 102.935 440.867 103.086C441.044 103.232 441.203 103.419 441.344 103.648L443.469 107H442.477C442.221 107 442.023 106.958 441.883 106.875C441.747 106.786 441.628 106.664 441.523 106.508L439.953 103.984C439.703 103.568 439.326 103.359 438.82 103.359H437.953V107.008H436.516ZM447.711 106.797V105.812H448.273C448.487 105.812 448.695 105.773 448.898 105.695C449.107 105.612 449.307 105.445 449.5 105.195C449.693 104.94 449.875 104.581 450.047 104.117C450.219 103.654 450.372 103.042 450.508 102.281C450.648 101.516 450.768 100.583 450.867 99.4844C450.971 98.3802 451.049 97.0651 451.102 95.5391H457.906V107H456.359V96.7578H452.562C452.49 98.2318 452.391 99.5104 452.266 100.594C452.141 101.677 451.987 102.604 451.805 103.375C451.628 104.141 451.424 104.766 451.195 105.25C450.971 105.729 450.724 106.107 450.453 106.383C450.188 106.659 449.898 106.849 449.586 106.953C449.279 107.052 448.953 107.102 448.609 107.102C448.323 107.102 448.102 107.076 447.945 107.023C447.789 106.977 447.711 106.901 447.711 106.797ZM459.234 106.891V105.984H459.648C459.831 105.984 460.016 105.953 460.203 105.891C460.391 105.823 460.573 105.701 460.75 105.523C460.927 105.341 461.099 105.086 461.266 104.758C461.432 104.43 461.583 104.003 461.719 103.477C461.854 102.951 461.971 102.312 462.07 101.562C462.169 100.812 462.245 99.9245 462.297 98.8984H467.469V107H466.039V100.016H463.484C463.422 101.047 463.326 101.938 463.195 102.688C463.065 103.432 462.911 104.068 462.734 104.594C462.557 105.12 462.357 105.547 462.133 105.875C461.914 106.203 461.682 106.458 461.438 106.641C461.198 106.823 460.948 106.945 460.688 107.008C460.427 107.07 460.169 107.102 459.914 107.102C459.461 107.102 459.234 107.031 459.234 106.891ZM474.148 107V95.5391H475.297C475.438 95.5391 475.544 95.5521 475.617 95.5781C475.69 95.6042 475.76 95.6771 475.828 95.7969L479.789 102.859C479.852 102.99 479.911 103.125 479.969 103.266C480.031 103.401 480.091 103.539 480.148 103.68C480.201 103.534 480.255 103.391 480.312 103.25C480.375 103.109 480.44 102.977 480.508 102.852L484.398 95.7969C484.461 95.6719 484.531 95.599 484.609 95.5781C484.688 95.5521 484.797 95.5391 484.938 95.5391H486.078V107H484.719V98.5781C484.719 98.4635 484.721 98.3438 484.727 98.2188C484.732 98.0885 484.74 97.9557 484.75 97.8203L480.82 104.992C480.695 105.232 480.51 105.352 480.266 105.352H480.039C479.789 105.352 479.602 105.232 479.477 104.992L475.461 97.7969C475.477 97.9375 475.487 98.0755 475.492 98.2109C475.503 98.3411 475.508 98.4635 475.508 98.5781V107H474.148ZM488.547 107V98.875H489.695C489.794 98.875 489.891 98.8984 489.984 98.9453C490.083 98.987 490.167 99.0703 490.234 99.1953L492.766 103.414C492.823 103.539 492.88 103.667 492.938 103.797C492.995 103.927 493.047 104.06 493.094 104.195C493.182 103.924 493.289 103.664 493.414 103.414L495.891 99.1953C495.958 99.0651 496.042 98.9792 496.141 98.9375C496.24 98.8958 496.339 98.875 496.438 98.875H497.578V107H496.297V101.617C496.297 101.471 496.305 101.307 496.32 101.125C496.341 100.938 496.367 100.763 496.398 100.602L493.578 105.539C493.536 105.617 493.482 105.68 493.414 105.727C493.346 105.773 493.266 105.797 493.172 105.797H493.016C492.927 105.797 492.846 105.773 492.773 105.727C492.701 105.68 492.643 105.617 492.602 105.539L489.734 100.586C489.76 100.747 489.784 100.922 489.805 101.109C489.826 101.297 489.836 101.466 489.836 101.617V107H488.547ZM504.258 107V95.5391H505.812V100.648H512V95.5391H513.547V107H512V101.781H505.812V107H504.258ZM516.016 107V98.8984H517.453V102.125H521.336V98.8984H522.773V107H521.336V103.211H517.453V107H516.016ZM528.75 101.273C528.75 100.414 528.885 99.625 529.156 98.9062C529.432 98.1875 529.818 97.5703 530.312 97.0547C530.807 96.5339 531.401 96.1302 532.094 95.8438C532.786 95.5521 533.555 95.4062 534.398 95.4062C535.242 95.4062 536.01 95.5521 536.703 95.8438C537.401 96.1302 537.997 96.5339 538.492 97.0547C538.992 97.5703 539.378 98.1875 539.648 98.9062C539.919 99.625 540.055 100.414 540.055 101.273C540.055 102.133 539.919 102.922 539.648 103.641C539.378 104.354 538.992 104.971 538.492 105.492C537.997 106.008 537.401 106.409 536.703 106.695C536.01 106.977 535.242 107.117 534.398 107.117C533.555 107.117 532.786 106.977 532.094 106.695C531.401 106.409 530.807 106.008 530.312 105.492C529.818 104.971 529.432 104.354 529.156 103.641C528.885 102.922 528.75 102.133 528.75 101.273ZM530.336 101.273C530.336 101.977 530.432 102.607 530.625 103.164C530.818 103.721 531.091 104.193 531.445 104.578C531.799 104.964 532.227 105.26 532.727 105.469C533.227 105.672 533.784 105.773 534.398 105.773C535.018 105.773 535.578 105.672 536.078 105.469C536.578 105.26 537.005 104.964 537.359 104.578C537.714 104.193 537.984 103.721 538.172 103.164C538.365 102.607 538.461 101.977 538.461 101.273C538.461 100.57 538.365 99.9401 538.172 99.3828C537.984 98.8203 537.714 98.3464 537.359 97.9609C537.005 97.5703 536.578 97.2708 536.078 97.0625C535.578 96.8542 535.018 96.75 534.398 96.75C533.784 96.75 533.227 96.8542 532.727 97.0625C532.227 97.2708 531.799 97.5703 531.445 97.9609C531.091 98.3464 530.818 98.8203 530.625 99.3828C530.432 99.9401 530.336 100.57 530.336 101.273ZM541.375 102.945C541.375 102.31 541.464 101.734 541.641 101.219C541.823 100.703 542.081 100.266 542.414 99.9062C542.753 99.5417 543.159 99.2604 543.633 99.0625C544.112 98.8646 544.651 98.7656 545.25 98.7656C545.844 98.7656 546.378 98.8646 546.852 99.0625C547.326 99.2604 547.729 99.5417 548.062 99.9062C548.401 100.266 548.659 100.703 548.836 101.219C549.013 101.734 549.102 102.31 549.102 102.945C549.102 103.586 549.013 104.161 548.836 104.672C548.659 105.182 548.401 105.62 548.062 105.984C547.729 106.349 547.323 106.628 546.844 106.82C546.37 107.013 545.839 107.109 545.25 107.109C544.651 107.109 544.112 107.013 543.633 106.82C543.159 106.628 542.753 106.349 542.414 105.984C542.081 105.62 541.823 105.182 541.641 104.672C541.464 104.161 541.375 103.586 541.375 102.945ZM542.836 102.953C542.836 103.911 543.034 104.659 543.43 105.195C543.831 105.732 544.438 106 545.25 106C546.052 106 546.648 105.732 547.039 105.195C547.435 104.659 547.633 103.911 547.633 102.953C547.633 101.99 547.435 101.24 547.039 100.703C546.643 100.161 546.047 99.8906 545.25 99.8906C544.844 99.8906 544.49 99.9609 544.188 100.102C543.885 100.237 543.633 100.435 543.43 100.695C543.232 100.956 543.083 101.279 542.984 101.664C542.885 102.044 542.836 102.474 542.836 102.953ZM555.336 107V95.5391H564.18V107H562.617V96.7578H556.891V107H555.336ZM566.641 107V98.8984H573.398V107H571.961V99.9844H568.078V107H566.641ZM580.086 107V95.5391H583.477C584.201 95.5391 584.831 95.6224 585.367 95.7891C585.904 95.9557 586.346 96.1953 586.695 96.5078C587.049 96.8151 587.312 97.1875 587.484 97.625C587.656 98.0625 587.742 98.5495 587.742 99.0859C587.742 99.6172 587.648 100.107 587.461 100.555C587.279 100.997 587.005 101.38 586.641 101.703C586.281 102.021 585.836 102.268 585.305 102.445C584.779 102.622 584.169 102.711 583.477 102.711H581.633V107H580.086ZM581.633 101.477H583.477C583.919 101.477 584.31 101.419 584.648 101.305C584.987 101.185 585.271 101.021 585.5 100.812C585.734 100.599 585.909 100.346 586.023 100.055C586.143 99.763 586.203 99.4401 586.203 99.0859C586.203 98.3568 585.977 97.7865 585.523 97.375C585.076 96.9635 584.393 96.7578 583.477 96.7578H581.633V101.477ZM589.203 109.742V98.8984H590.062C590.266 98.8984 590.391 98.9974 590.438 99.1953L590.555 100.148C590.904 99.7266 591.302 99.388 591.75 99.1328C592.198 98.8776 592.711 98.75 593.289 98.75C593.758 98.75 594.18 98.8411 594.555 99.0234C594.935 99.2005 595.258 99.4635 595.523 99.8125C595.794 100.161 596 100.596 596.141 101.117C596.286 101.633 596.359 102.227 596.359 102.898C596.359 103.497 596.279 104.055 596.117 104.57C595.956 105.081 595.724 105.523 595.422 105.898C595.125 106.273 594.758 106.57 594.32 106.789C593.888 107.003 593.398 107.109 592.852 107.109C592.357 107.109 591.932 107.029 591.578 106.867C591.224 106.701 590.911 106.464 590.641 106.156V109.742H589.203ZM590.641 105.047C590.896 105.401 591.18 105.651 591.492 105.797C591.805 105.938 592.151 106.008 592.531 106.008C593.286 106.008 593.867 105.74 594.273 105.203C594.68 104.661 594.883 103.893 594.883 102.898C594.883 102.372 594.836 101.919 594.742 101.539C594.654 101.159 594.521 100.849 594.344 100.609C594.167 100.365 593.948 100.188 593.688 100.078C593.432 99.9635 593.143 99.9062 592.82 99.9062C592.357 99.9062 591.951 100.013 591.602 100.227C591.253 100.44 590.932 100.74 590.641 101.125V105.047ZM374.758 132.273C374.758 131.409 374.893 130.617 375.164 129.898C375.44 129.174 375.823 128.555 376.312 128.039C376.807 127.523 377.398 127.122 378.086 126.836C378.773 126.549 379.534 126.406 380.367 126.406C381.185 126.406 381.904 126.539 382.523 126.805C383.148 127.065 383.701 127.419 384.18 127.867L383.664 128.578C383.633 128.63 383.591 128.674 383.539 128.711C383.487 128.742 383.419 128.758 383.336 128.758C383.242 128.758 383.125 128.706 382.984 128.602C382.844 128.497 382.661 128.383 382.438 128.258C382.214 128.128 381.932 128.01 381.594 127.906C381.26 127.802 380.849 127.75 380.359 127.75C379.766 127.75 379.224 127.854 378.734 128.062C378.245 128.266 377.823 128.562 377.469 128.953C377.115 129.344 376.839 129.82 376.641 130.383C376.443 130.94 376.344 131.57 376.344 132.273C376.344 132.987 376.445 133.625 376.648 134.188C376.857 134.745 377.138 135.219 377.492 135.609C377.846 135.995 378.263 136.289 378.742 136.492C379.227 136.69 379.75 136.789 380.312 136.789C380.656 136.789 380.964 136.771 381.234 136.734C381.51 136.693 381.763 136.63 381.992 136.547C382.227 136.458 382.443 136.349 382.641 136.219C382.844 136.089 383.044 135.932 383.242 135.75C383.336 135.672 383.427 135.633 383.516 135.633C383.599 135.633 383.672 135.667 383.734 135.734L384.352 136.398C383.883 136.94 383.312 137.365 382.641 137.672C381.974 137.974 381.167 138.125 380.219 138.125C379.396 138.125 378.648 137.984 377.977 137.703C377.305 137.417 376.732 137.016 376.258 136.5C375.784 135.984 375.414 135.367 375.148 134.648C374.888 133.93 374.758 133.138 374.758 132.273ZM385.203 133.945C385.203 133.341 385.286 132.784 385.453 132.273C385.625 131.763 385.87 131.323 386.188 130.953C386.51 130.578 386.909 130.286 387.383 130.078C387.857 129.87 388.398 129.766 389.008 129.766C389.581 129.766 390.083 129.859 390.516 130.047C390.953 130.229 391.339 130.487 391.672 130.82L391.297 131.336C391.255 131.393 391.214 131.44 391.172 131.477C391.13 131.508 391.07 131.523 390.992 131.523C390.914 131.523 390.826 131.49 390.727 131.422C390.633 131.354 390.516 131.281 390.375 131.203C390.234 131.12 390.06 131.047 389.852 130.984C389.648 130.917 389.398 130.883 389.102 130.883C388.701 130.883 388.346 130.953 388.039 131.094C387.737 131.234 387.482 131.438 387.273 131.703C387.07 131.969 386.917 132.292 386.812 132.672C386.708 133.052 386.656 133.477 386.656 133.945C386.656 134.435 386.711 134.87 386.82 135.25C386.935 135.63 387.094 135.951 387.297 136.211C387.505 136.471 387.755 136.669 388.047 136.805C388.339 136.94 388.664 137.008 389.023 137.008C389.372 137.008 389.659 136.966 389.883 136.883C390.107 136.799 390.292 136.708 390.438 136.609C390.583 136.505 390.706 136.414 390.805 136.336C390.904 136.253 391.003 136.211 391.102 136.211C391.221 136.211 391.312 136.255 391.375 136.344L391.773 136.867C391.596 137.086 391.396 137.273 391.172 137.43C390.948 137.581 390.706 137.708 390.445 137.812C390.19 137.917 389.919 137.992 389.633 138.039C389.352 138.086 389.065 138.109 388.773 138.109C388.268 138.109 387.797 138.018 387.359 137.836C386.927 137.648 386.549 137.378 386.227 137.023C385.909 136.664 385.659 136.227 385.477 135.711C385.294 135.195 385.203 134.607 385.203 133.945ZM396.508 127.844V126.539H405.484V127.844H401.773V138H400.227V127.844H396.508ZM404.5 130.984V129.898H412.148V130.984H409.031V138H407.609V130.984H404.5ZM416.523 126.539H417.977C418.117 126.539 418.227 126.573 418.305 126.641C418.383 126.703 418.451 126.789 418.508 126.898L421.344 132.094C421.542 132.474 421.701 132.859 421.82 133.25C421.872 133.057 421.935 132.865 422.008 132.672C422.086 132.479 422.169 132.286 422.258 132.094L424.672 126.898C424.714 126.81 424.779 126.729 424.867 126.656C424.956 126.578 425.065 126.539 425.195 126.539H426.477L421.82 136.508C421.674 136.82 421.518 137.081 421.352 137.289C421.185 137.492 421.005 137.654 420.812 137.773C420.62 137.893 420.411 137.977 420.188 138.023C419.964 138.076 419.724 138.102 419.469 138.102C419.182 138.102 418.961 138.076 418.805 138.023C418.648 137.977 418.57 137.901 418.57 137.797V136.812H419.133C419.268 136.812 419.401 136.799 419.531 136.773C419.667 136.742 419.794 136.69 419.914 136.617C420.039 136.544 420.156 136.445 420.266 136.32C420.38 136.19 420.482 136.031 420.57 135.844L421.133 134.672L416.523 126.539ZM426.172 129.898H427.398C427.523 129.898 427.62 129.93 427.688 129.992C427.76 130.049 427.812 130.117 427.844 130.195L430.008 135.297C430.049 135.422 430.089 135.542 430.125 135.656C430.167 135.766 430.201 135.883 430.227 136.008C430.294 135.768 430.372 135.529 430.461 135.289L432.57 130.195C432.602 130.112 432.656 130.042 432.734 129.984C432.812 129.927 432.898 129.898 432.992 129.898H434.117L429.602 140.391C429.555 140.495 429.495 140.578 429.422 140.641C429.349 140.708 429.237 140.742 429.086 140.742H428.031L429.516 137.531L426.172 129.898ZM438.961 131.977C438.961 131.352 439.081 130.763 439.32 130.211C439.56 129.659 439.896 129.174 440.328 128.758C440.76 128.341 441.276 128.01 441.875 127.766C442.479 127.516 443.146 127.383 443.875 127.367V126.016H445.344V127.367C446.073 127.383 446.74 127.516 447.344 127.766C447.948 128.01 448.464 128.341 448.891 128.758C449.323 129.174 449.656 129.659 449.891 130.211C450.13 130.763 450.25 131.352 450.25 131.977C450.25 132.607 450.13 133.201 449.891 133.758C449.656 134.31 449.323 134.797 448.891 135.219C448.464 135.635 447.948 135.969 447.344 136.219C446.74 136.469 446.073 136.602 445.344 136.617V138H443.875V136.617C443.141 136.602 442.471 136.469 441.867 136.219C441.263 135.969 440.745 135.635 440.312 135.219C439.885 134.797 439.552 134.31 439.312 133.758C439.078 133.201 438.961 132.607 438.961 131.977ZM440.516 131.977C440.516 132.445 440.594 132.885 440.75 133.297C440.911 133.708 441.138 134.07 441.43 134.383C441.727 134.69 442.081 134.935 442.492 135.117C442.904 135.294 443.365 135.385 443.875 135.391V128.57C443.37 128.581 442.909 128.677 442.492 128.859C442.081 129.036 441.727 129.279 441.43 129.586C441.138 129.893 440.911 130.253 440.75 130.664C440.594 131.076 440.516 131.513 440.516 131.977ZM445.344 135.391C445.844 135.385 446.299 135.294 446.711 135.117C447.128 134.935 447.484 134.69 447.781 134.383C448.078 134.07 448.305 133.708 448.461 133.297C448.622 132.885 448.703 132.445 448.703 131.977C448.703 131.513 448.622 131.078 448.461 130.672C448.305 130.26 448.078 129.901 447.781 129.594C447.484 129.281 447.128 129.036 446.711 128.859C446.299 128.677 445.844 128.581 445.344 128.57V135.391ZM451.398 133.945C451.398 133.331 451.497 132.776 451.695 132.281C451.898 131.781 452.185 131.352 452.555 130.992C452.93 130.628 453.383 130.341 453.914 130.133C454.451 129.924 455.052 129.805 455.719 129.773V126.539H457.062V129.773C457.729 129.805 458.328 129.924 458.859 130.133C459.396 130.341 459.849 130.628 460.219 130.992C460.594 131.352 460.88 131.781 461.078 132.281C461.281 132.776 461.383 133.331 461.383 133.945C461.383 134.56 461.281 135.117 461.078 135.617C460.88 136.112 460.594 136.539 460.219 136.898C459.849 137.258 459.396 137.542 458.859 137.75C458.328 137.958 457.729 138.076 457.062 138.102V140.789H455.719V138.102C455.052 138.076 454.451 137.958 453.914 137.75C453.383 137.542 452.93 137.258 452.555 136.898C452.185 136.539 451.898 136.112 451.695 135.617C451.497 135.117 451.398 134.56 451.398 133.945ZM452.828 133.953C452.828 134.411 452.891 134.826 453.016 135.195C453.141 135.56 453.326 135.875 453.57 136.141C453.82 136.406 454.125 136.617 454.484 136.773C454.849 136.924 455.271 137.01 455.75 137.031L455.758 136.984V130.852C455.279 130.878 454.857 130.969 454.492 131.125C454.133 131.276 453.828 131.484 453.578 131.75C453.328 132.016 453.141 132.336 453.016 132.711C452.891 133.081 452.828 133.495 452.828 133.953ZM457.016 136.961L457.023 137.031C457.497 137.01 457.917 136.924 458.281 136.773C458.646 136.617 458.951 136.406 459.195 136.141C459.445 135.875 459.633 135.56 459.758 135.195C459.888 134.826 459.953 134.411 459.953 133.953C459.953 133.495 459.888 133.078 459.758 132.703C459.633 132.328 459.445 132.008 459.195 131.742C458.951 131.477 458.646 131.268 458.281 131.117C457.917 130.966 457.495 130.878 457.016 130.852V136.961ZM466.281 138L470.227 132.109L466.445 126.539H467.992C468.107 126.539 468.19 126.557 468.242 126.594C468.294 126.63 468.341 126.682 468.383 126.75L471.375 131.344C471.411 131.229 471.466 131.107 471.539 130.977L474.367 126.781C474.409 126.708 474.458 126.651 474.516 126.609C474.573 126.562 474.643 126.539 474.727 126.539H476.203L472.406 132.039L476.336 138H474.797C474.677 138 474.583 137.969 474.516 137.906C474.453 137.844 474.401 137.776 474.359 137.703L471.281 132.898C471.245 133.013 471.198 133.12 471.141 133.219L468.148 137.703C468.096 137.776 468.039 137.844 467.977 137.906C467.914 137.969 467.831 138 467.727 138H466.281ZM476.703 138L479.539 133.852L476.812 129.898H478.18C478.299 129.898 478.385 129.917 478.438 129.953C478.49 129.99 478.536 130.042 478.578 130.109L480.562 133.148C480.609 132.997 480.68 132.849 480.773 132.703L482.516 130.141C482.562 130.068 482.615 130.01 482.672 129.969C482.729 129.922 482.797 129.898 482.875 129.898H484.188L481.461 133.766L484.297 138H482.93C482.81 138 482.716 137.969 482.648 137.906C482.586 137.844 482.534 137.776 482.492 137.703L480.453 134.531C480.417 134.688 480.359 134.826 480.281 134.945L478.398 137.703C478.346 137.776 478.289 137.844 478.227 137.906C478.164 137.969 478.078 138 477.969 138H476.703ZM490.039 138V126.539H491.594V136.781H497.32V126.539H498.883V136.781H500.633V140.328C500.633 140.469 500.586 140.581 500.492 140.664C500.398 140.747 500.281 140.789 500.141 140.789H499.211V138H490.039ZM502.031 138V129.898H503.469V136.922H507.352V129.898H508.789V136.922H510.266V140.352C510.266 140.492 510.227 140.599 510.148 140.672C510.07 140.75 509.971 140.789 509.852 140.789H508.977V138H502.031ZM515.406 130.281V126.539H516.961V130.289C516.961 130.815 517.068 131.242 517.281 131.57C517.495 131.893 517.82 132.12 518.258 132.25C518.695 132.375 519.242 132.411 519.898 132.359C520.56 132.302 521.339 132.156 522.234 131.922V126.539H523.789V138H522.234V133.047C521.62 133.208 521.026 133.336 520.453 133.43C519.88 133.523 519.339 133.568 518.828 133.562C518.323 133.557 517.859 133.495 517.438 133.375C517.021 133.255 516.661 133.065 516.359 132.805C516.062 132.544 515.828 132.208 515.656 131.797C515.49 131.385 515.406 130.88 515.406 130.281ZM525.648 132.578V129.898H527.078V132.359C527.078 132.75 527.156 133.057 527.312 133.281C527.474 133.505 527.706 133.661 528.008 133.75C528.31 133.839 528.685 133.865 529.133 133.828C529.581 133.786 530.096 133.698 530.68 133.562V129.898H532.102V138H530.68V134.562C529.982 134.745 529.326 134.859 528.711 134.906C528.102 134.953 527.57 134.906 527.117 134.766C526.664 134.625 526.305 134.38 526.039 134.031C525.779 133.682 525.648 133.198 525.648 132.578ZM538.789 138V126.539H540.344V136.781H545.141V126.539H546.695V136.781H551.531V126.539H553.086V138H538.789ZM555.547 138V129.898H556.984V136.922H560.289V129.898H561.719V136.922H565.023V129.898H566.453V138H555.547ZM375.461 169V157.539H377.016V167.781H381.812V157.539H383.367V167.781H388.203V157.539H389.758V167.781H391.516V171.328C391.516 171.469 391.469 171.581 391.375 171.664C391.281 171.747 391.161 171.789 391.016 171.789H390.086V169H375.461ZM392.906 169V160.898H394.344V167.922H397.648V160.898H399.078V167.922H402.383V160.898H403.812V167.922H405.305V171.352C405.305 171.492 405.266 171.599 405.188 171.672C405.109 171.75 405.008 171.789 404.883 171.789H404.008V169H392.906ZM409.938 158.797V157.539H414.773V162.469H417.008C417.706 162.469 418.307 162.547 418.812 162.703C419.323 162.854 419.742 163.068 420.07 163.344C420.398 163.615 420.641 163.94 420.797 164.32C420.953 164.701 421.031 165.115 421.031 165.562C421.031 166.089 420.94 166.565 420.758 166.992C420.581 167.414 420.32 167.776 419.977 168.078C419.633 168.375 419.211 168.604 418.711 168.766C418.211 168.922 417.641 169 417 169H413.234V158.797H409.938ZM414.773 167.766H417C417.443 167.766 417.823 167.716 418.141 167.617C418.458 167.513 418.716 167.372 418.914 167.195C419.117 167.018 419.263 166.805 419.352 166.555C419.445 166.299 419.492 166.018 419.492 165.711C419.492 165.393 419.445 165.109 419.352 164.859C419.263 164.609 419.117 164.398 418.914 164.227C418.716 164.055 418.458 163.924 418.141 163.836C417.828 163.747 417.451 163.703 417.008 163.703H414.773V167.766ZM420.867 162V160.898H424.82V164.07H426.539C427.102 164.07 427.573 164.138 427.953 164.273C428.333 164.404 428.641 164.581 428.875 164.805C429.109 165.029 429.276 165.289 429.375 165.586C429.479 165.878 429.531 166.18 429.531 166.492C429.531 166.857 429.466 167.193 429.336 167.5C429.211 167.807 429.021 168.073 428.766 168.297C428.516 168.516 428.206 168.688 427.836 168.812C427.471 168.938 427.049 169 426.57 169H423.453V162H420.867ZM424.82 167.961H426.562C426.849 167.961 427.096 167.924 427.305 167.852C427.518 167.779 427.695 167.677 427.836 167.547C427.977 167.417 428.081 167.263 428.148 167.086C428.221 166.909 428.258 166.719 428.258 166.516C428.258 166.323 428.227 166.143 428.164 165.977C428.102 165.805 428.003 165.656 427.867 165.531C427.732 165.401 427.555 165.299 427.336 165.227C427.122 165.148 426.859 165.109 426.547 165.109H424.82V167.961ZM435.539 169V157.539H437.086V162.469H439.32C440.018 162.469 440.62 162.547 441.125 162.703C441.63 162.854 442.047 163.068 442.375 163.344C442.703 163.615 442.945 163.94 443.102 164.32C443.263 164.701 443.344 165.115 443.344 165.562C443.344 166.089 443.253 166.565 443.07 166.992C442.893 167.414 442.633 167.776 442.289 168.078C441.945 168.375 441.523 168.604 441.023 168.766C440.523 168.922 439.953 169 439.312 169H435.539ZM437.086 167.766H439.312C439.755 167.766 440.135 167.716 440.453 167.617C440.771 167.513 441.029 167.372 441.227 167.195C441.424 167.018 441.57 166.805 441.664 166.555C441.758 166.299 441.805 166.018 441.805 165.711C441.805 165.393 441.758 165.109 441.664 164.859C441.57 164.609 441.424 164.398 441.227 164.227C441.029 164.055 440.771 163.924 440.453 163.836C440.141 163.747 439.763 163.703 439.32 163.703H437.086V167.766ZM444.938 169V160.898H446.305V164.07H448.031C448.594 164.07 449.065 164.138 449.445 164.273C449.826 164.404 450.13 164.581 450.359 164.805C450.594 165.029 450.76 165.289 450.859 165.586C450.964 165.878 451.016 166.18 451.016 166.492C451.016 166.857 450.951 167.193 450.82 167.5C450.69 167.807 450.5 168.073 450.25 168.297C450 168.516 449.69 168.688 449.32 168.812C448.956 168.938 448.534 169 448.055 169H444.938ZM446.305 167.961H448.055C448.341 167.961 448.589 167.924 448.797 167.852C449.01 167.779 449.185 167.677 449.32 167.547C449.461 167.417 449.565 167.263 449.633 167.086C449.706 166.909 449.742 166.719 449.742 166.516C449.742 166.323 449.711 166.143 449.648 165.977C449.591 165.805 449.495 165.656 449.359 165.531C449.224 165.401 449.047 165.299 448.828 165.227C448.609 165.148 448.344 165.109 448.031 165.109H446.305V167.961ZM456.016 167.398L456.633 166.734C456.701 166.667 456.776 166.633 456.859 166.633C456.948 166.633 457.039 166.672 457.133 166.75C457.331 166.932 457.529 167.089 457.727 167.219C457.924 167.349 458.138 167.458 458.367 167.547C458.602 167.63 458.854 167.693 459.125 167.734C459.401 167.771 459.711 167.789 460.055 167.789C460.581 167.789 461.073 167.701 461.531 167.523C461.995 167.341 462.401 167.078 462.75 166.734C463.104 166.391 463.391 165.969 463.609 165.469C463.828 164.964 463.961 164.391 464.008 163.75H458.227V162.578H463.984C463.922 161.979 463.781 161.443 463.562 160.969C463.344 160.495 463.06 160.094 462.711 159.766C462.367 159.438 461.966 159.188 461.508 159.016C461.049 158.839 460.549 158.75 460.008 158.75C459.518 158.75 459.104 158.802 458.766 158.906C458.432 159.01 458.154 159.128 457.93 159.258C457.706 159.383 457.523 159.497 457.383 159.602C457.247 159.706 457.13 159.758 457.031 159.758C456.948 159.758 456.88 159.742 456.828 159.711C456.781 159.674 456.74 159.63 456.703 159.578L456.195 158.867C456.669 158.419 457.219 158.065 457.844 157.805C458.469 157.539 459.188 157.406 460 157.406C460.833 157.406 461.594 157.549 462.281 157.836C462.969 158.122 463.56 158.523 464.055 159.039C464.549 159.555 464.932 160.174 465.203 160.898C465.474 161.617 465.609 162.409 465.609 163.273C465.609 164.138 465.479 164.93 465.219 165.648C464.958 166.367 464.591 166.984 464.117 167.5C463.643 168.016 463.068 168.417 462.391 168.703C461.719 168.984 460.974 169.125 460.156 169.125C459.208 169.125 458.398 168.974 457.727 168.672C457.055 168.37 456.484 167.945 456.016 167.398ZM466.648 167.867L467.031 167.391C467.094 167.302 467.182 167.258 467.297 167.258C467.391 167.258 467.49 167.297 467.594 167.375C467.698 167.448 467.826 167.534 467.977 167.633C468.128 167.727 468.315 167.812 468.539 167.891C468.763 167.969 469.049 168.008 469.398 168.008C469.737 168.008 470.044 167.951 470.32 167.836C470.596 167.716 470.839 167.544 471.047 167.32C471.255 167.096 471.422 166.82 471.547 166.492C471.677 166.164 471.758 165.786 471.789 165.359H467.945V164.367H471.773C471.732 163.982 471.646 163.635 471.516 163.328C471.385 163.021 471.219 162.76 471.016 162.547C470.812 162.333 470.568 162.169 470.281 162.055C469.995 161.94 469.674 161.883 469.32 161.883C469.023 161.883 468.771 161.914 468.562 161.977C468.354 162.034 468.177 162.102 468.031 162.18C467.891 162.253 467.771 162.32 467.672 162.383C467.573 162.44 467.484 162.469 467.406 162.469C467.333 162.469 467.273 162.456 467.227 162.43C467.185 162.398 467.143 162.354 467.102 162.297L466.742 161.82C467.081 161.482 467.466 161.221 467.898 161.039C468.336 160.857 468.839 160.766 469.406 160.766C470.021 160.766 470.565 160.87 471.039 161.078C471.513 161.286 471.911 161.578 472.234 161.953C472.557 162.323 472.802 162.763 472.969 163.273C473.135 163.784 473.219 164.341 473.219 164.945C473.219 165.607 473.125 166.195 472.938 166.711C472.755 167.227 472.505 167.664 472.188 168.023C471.87 168.378 471.492 168.648 471.055 168.836C470.622 169.018 470.151 169.109 469.641 169.109C469.052 169.109 468.495 169.01 467.969 168.812C467.443 168.615 467.003 168.299 466.648 167.867ZM479.445 169V157.539H481V162.664H483.477C483.534 161.893 483.698 161.185 483.969 160.539C484.24 159.893 484.599 159.339 485.047 158.875C485.5 158.411 486.034 158.052 486.648 157.797C487.263 157.536 487.943 157.406 488.688 157.406C489.479 157.406 490.195 157.552 490.836 157.844C491.477 158.13 492.026 158.534 492.484 159.055C492.943 159.57 493.294 160.188 493.539 160.906C493.789 161.625 493.914 162.414 493.914 163.273C493.914 164.133 493.789 164.922 493.539 165.641C493.294 166.354 492.943 166.969 492.484 167.484C492.026 168 491.477 168.401 490.836 168.688C490.195 168.969 489.479 169.109 488.688 169.109C487.943 169.109 487.263 168.984 486.648 168.734C486.034 168.479 485.5 168.122 485.047 167.664C484.599 167.206 484.24 166.656 483.969 166.016C483.703 165.37 483.539 164.659 483.477 163.883H481V169H479.445ZM485.039 163.273C485.039 163.977 485.125 164.609 485.297 165.172C485.469 165.734 485.714 166.214 486.031 166.609C486.349 167 486.729 167.299 487.172 167.508C487.62 167.711 488.125 167.812 488.688 167.812C489.24 167.812 489.74 167.711 490.188 167.508C490.641 167.299 491.023 167 491.336 166.609C491.654 166.214 491.898 165.734 492.07 165.172C492.242 164.609 492.328 163.977 492.328 163.273C492.328 162.57 492.242 161.938 492.07 161.375C491.898 160.812 491.654 160.333 491.336 159.938C491.023 159.542 490.643 159.24 490.195 159.031C489.747 158.818 489.245 158.711 488.688 158.711C488.125 158.711 487.62 158.818 487.172 159.031C486.729 159.24 486.349 159.542 486.031 159.938C485.714 160.333 485.469 160.812 485.297 161.375C485.125 161.938 485.039 162.57 485.039 163.273ZM495.656 169V160.898H497.094V164.391H499.062C499.109 163.839 499.224 163.339 499.406 162.891C499.589 162.443 499.836 162.062 500.148 161.75C500.461 161.432 500.828 161.19 501.25 161.023C501.677 160.852 502.154 160.766 502.68 160.766C503.247 160.766 503.758 160.865 504.211 161.062C504.669 161.26 505.057 161.542 505.375 161.906C505.698 162.266 505.945 162.703 506.117 163.219C506.294 163.734 506.383 164.31 506.383 164.945C506.383 165.586 506.294 166.161 506.117 166.672C505.94 167.182 505.688 167.62 505.359 167.984C505.036 168.349 504.648 168.628 504.195 168.82C503.742 169.013 503.237 169.109 502.68 169.109C502.143 169.109 501.659 169.026 501.227 168.859C500.799 168.688 500.43 168.443 500.117 168.125C499.81 167.807 499.565 167.422 499.383 166.969C499.206 166.516 499.096 166.003 499.055 165.43H497.094V169H495.656ZM500.461 164.953C500.461 165.911 500.643 166.659 501.008 167.195C501.378 167.732 501.935 168 502.68 168C503.424 168 503.982 167.732 504.352 167.195C504.721 166.659 504.906 165.911 504.906 164.953C504.906 163.99 504.721 163.24 504.352 162.703C503.987 162.161 503.43 161.891 502.68 161.891C501.935 161.891 501.378 162.161 501.008 162.703C500.643 163.24 500.461 163.99 500.461 164.953ZM511.109 169L514.078 164.812C514.396 164.344 514.771 164.01 515.203 163.812C514.745 163.729 514.344 163.596 514 163.414C513.661 163.232 513.378 163.013 513.148 162.758C512.924 162.497 512.755 162.203 512.641 161.875C512.531 161.542 512.477 161.182 512.477 160.797C512.477 160.307 512.565 159.865 512.742 159.469C512.924 159.068 513.188 158.724 513.531 158.438C513.875 158.151 514.294 157.93 514.789 157.773C515.289 157.617 515.859 157.539 516.5 157.539H520.32V169H518.773V164.062H517.125C516.99 164.068 516.862 164.083 516.742 164.109C516.628 164.135 516.513 164.182 516.398 164.25C516.289 164.312 516.18 164.398 516.07 164.508C515.961 164.617 515.852 164.753 515.742 164.914L513.25 168.445C513.156 168.617 513.026 168.753 512.859 168.852C512.693 168.951 512.497 169 512.273 169H511.109ZM514.008 160.789C514.008 161.107 514.052 161.393 514.141 161.648C514.234 161.904 514.38 162.12 514.578 162.297C514.781 162.474 515.042 162.609 515.359 162.703C515.677 162.797 516.057 162.844 516.5 162.844H518.773V158.766H516.5C516.057 158.766 515.677 158.815 515.359 158.914C515.047 159.008 514.789 159.146 514.586 159.328C514.383 159.505 514.234 159.719 514.141 159.969C514.052 160.214 514.008 160.487 514.008 160.789ZM521.672 169L524.023 165.945C524.211 165.638 524.466 165.424 524.789 165.305C524.378 165.253 524.029 165.159 523.742 165.023C523.461 164.883 523.232 164.719 523.055 164.531C522.878 164.339 522.747 164.128 522.664 163.898C522.586 163.669 522.547 163.438 522.547 163.203C522.547 162.927 522.602 162.651 522.711 162.375C522.82 162.094 522.995 161.846 523.234 161.633C523.474 161.414 523.784 161.237 524.164 161.102C524.549 160.966 525.013 160.898 525.555 160.898H528.312V169H526.953V165.586H526.328C526.177 165.586 526.052 165.599 525.953 165.625C525.859 165.646 525.776 165.677 525.703 165.719C525.63 165.76 525.568 165.815 525.516 165.883C525.464 165.951 525.406 166.026 525.344 166.109L523.57 168.508C523.482 168.68 523.37 168.805 523.234 168.883C523.104 168.961 522.914 169 522.664 169H521.672ZM523.977 163.281C523.977 163.719 524.135 164.062 524.453 164.312C524.776 164.557 525.216 164.68 525.773 164.68H526.953V161.859H525.594C525.292 161.859 525.036 161.904 524.828 161.992C524.62 162.076 524.453 162.188 524.328 162.328C524.203 162.464 524.112 162.615 524.055 162.781C524.003 162.948 523.977 163.115 523.977 163.281Z" fill="black"/>
<path d="M191.459 115.278L167.047 52.0225C166.324 50.1418 165.564 47.9718 164.768 45.5125C163.973 42.9808 163.213 40.3045 162.49 37.4835C160.971 43.3425 159.416 48.225 157.824 52.131L133.412 115.278H191.459ZM235.293 173H219.018C217.138 173 215.619 172.53 214.461 171.589C213.304 170.649 212.436 169.456 211.857 168.009L197.318 130.468H127.553L113.014 168.009C112.58 169.311 111.748 170.468 110.518 171.481C109.289 172.494 107.734 173 105.853 173H89.6864L151.857 17.5195H173.123L235.293 173ZM295.694 160.197C306.544 160.197 314.718 156.761 320.215 149.889C325.785 142.945 328.57 133.253 328.57 120.811C328.57 108.442 325.893 98.786 320.541 91.842C315.26 84.898 307.304 81.426 296.671 81.426C291.535 81.426 286.906 82.2578 282.783 83.9215C278.66 85.5128 275.151 87.8637 272.258 90.974C269.437 94.0843 267.231 97.918 265.64 102.475C264.121 107.032 263.361 112.24 263.361 118.099C263.361 124.681 264.048 130.576 265.423 135.784C266.797 140.992 268.822 145.405 271.499 149.021C274.247 152.638 277.611 155.423 281.589 157.376C285.64 159.257 290.341 160.197 295.694 160.197ZM303.181 37.2665C295.803 37.9175 289.473 39.545 284.193 42.149C278.985 44.753 274.645 48.2973 271.173 52.782C267.701 57.1943 265.097 62.5108 263.361 68.7315C261.625 74.9522 260.612 81.9685 260.323 89.7805C262.059 86.3085 264.301 83.1982 267.05 80.4495C269.799 77.6285 272.945 75.2415 276.49 73.2885C280.034 71.2632 283.868 69.7442 287.991 68.7315C292.186 67.6465 296.634 67.104 301.336 67.104C308.642 67.104 315.188 68.406 320.975 71.01C326.834 73.5417 331.788 77.1583 335.839 81.86C339.962 86.5617 343.109 92.2398 345.279 98.8945C347.449 105.477 348.534 112.782 348.534 120.811C348.534 128.985 347.268 136.399 344.736 143.054C342.277 149.636 338.732 155.278 334.103 159.98C329.474 164.609 323.904 168.19 317.394 170.721C310.956 173.253 303.723 174.519 295.694 174.519C288.316 174.519 281.408 173.289 274.971 170.83C268.533 168.371 262.963 164.32 258.262 158.678C253.56 153.036 249.835 145.622 247.086 136.435C244.41 127.177 243.072 115.784 243.072 102.258C243.072 90.6847 244.12 80.0517 246.218 70.359C248.316 60.6663 251.679 52.2395 256.309 45.0785C261.01 37.9175 267.05 32.167 274.428 27.827C281.878 23.4147 290.92 20.7383 301.553 19.798L340.83 16.4345L341.915 26.4165C342.132 28.6588 341.807 30.5395 340.939 32.0585C340.071 33.5775 338.515 34.4093 336.273 34.554L303.181 37.2665Z" fill="#47AF56"/>
<path d="M150.055 173V161.43H152.203V171.227H156.828V173H150.055ZM157.469 170.906C157.469 170.599 157.549 170.294 157.711 169.992C157.878 169.69 158.148 169.417 158.523 169.172C158.904 168.927 159.409 168.727 160.039 168.57C160.669 168.409 161.453 168.318 162.391 168.297V167.812C162.391 167.266 162.273 166.862 162.039 166.602C161.805 166.336 161.466 166.203 161.023 166.203C160.706 166.203 160.44 166.24 160.227 166.312C160.013 166.385 159.826 166.469 159.664 166.562C159.508 166.656 159.365 166.742 159.234 166.82C159.104 166.893 158.958 166.93 158.797 166.93C158.656 166.93 158.539 166.893 158.445 166.82C158.352 166.747 158.273 166.664 158.211 166.57L157.859 165.938C158.802 165.073 159.94 164.641 161.273 164.641C161.753 164.641 162.18 164.719 162.555 164.875C162.935 165.031 163.255 165.25 163.516 165.531C163.776 165.812 163.974 166.148 164.109 166.539C164.25 166.924 164.32 167.349 164.32 167.812V173H163.422C163.234 173 163.089 172.971 162.984 172.914C162.885 172.857 162.807 172.745 162.75 172.578L162.57 171.992C162.362 172.18 162.159 172.344 161.961 172.484C161.768 172.625 161.565 172.745 161.352 172.844C161.138 172.938 160.909 173.008 160.664 173.055C160.424 173.102 160.156 173.125 159.859 173.125C159.51 173.125 159.19 173.081 158.898 172.992C158.607 172.898 158.354 172.758 158.141 172.57C157.927 172.383 157.76 172.151 157.641 171.875C157.526 171.594 157.469 171.271 157.469 170.906ZM159.359 170.797C159.359 171.146 159.461 171.396 159.664 171.547C159.872 171.693 160.141 171.766 160.469 171.766C160.875 171.766 161.227 171.693 161.523 171.547C161.82 171.401 162.109 171.18 162.391 170.883V169.492C161.812 169.518 161.331 169.568 160.945 169.641C160.56 169.714 160.25 169.807 160.016 169.922C159.781 170.031 159.612 170.161 159.508 170.312C159.409 170.464 159.359 170.625 159.359 170.797ZM165.367 165.859V165.07L166.688 164.859L167.102 162.617C167.128 162.513 167.177 162.432 167.25 162.375C167.328 162.312 167.424 162.281 167.539 162.281H168.562V164.867H170.758V166.273H168.562V170.719C168.562 170.974 168.625 171.174 168.75 171.32C168.88 171.466 169.055 171.539 169.273 171.539C169.398 171.539 169.5 171.523 169.578 171.492C169.661 171.461 169.732 171.43 169.789 171.398C169.852 171.367 169.906 171.339 169.953 171.312C170.005 171.281 170.055 171.266 170.102 171.266C170.159 171.266 170.206 171.281 170.242 171.312C170.284 171.339 170.326 171.38 170.367 171.438L170.961 172.398C170.674 172.638 170.344 172.82 169.969 172.945C169.594 173.065 169.206 173.125 168.805 173.125C168.091 173.125 167.542 172.924 167.156 172.523C166.776 172.122 166.586 171.568 166.586 170.859V166.273H165.75C165.646 166.273 165.555 166.24 165.477 166.172C165.404 166.099 165.367 165.995 165.367 165.859ZM171.586 168.883C171.586 168.237 171.682 167.654 171.875 167.133C172.068 166.607 172.341 166.164 172.695 165.805C173.055 165.44 173.484 165.159 173.984 164.961C174.484 164.763 175.042 164.664 175.656 164.664C176.266 164.664 176.818 164.763 177.312 164.961C177.812 165.159 178.24 165.44 178.594 165.805C178.948 166.164 179.221 166.607 179.414 167.133C179.607 167.654 179.703 168.237 179.703 168.883C179.703 169.534 179.607 170.12 179.414 170.641C179.221 171.161 178.948 171.607 178.594 171.977C178.24 172.346 177.812 172.63 177.312 172.828C176.818 173.021 176.266 173.117 175.656 173.117C175.042 173.117 174.484 173.021 173.984 172.828C173.484 172.63 173.055 172.346 172.695 171.977C172.341 171.607 172.068 171.161 171.875 170.641C171.682 170.12 171.586 169.534 171.586 168.883ZM173.617 168.898C173.617 169.779 173.784 170.451 174.117 170.914C174.451 171.372 174.964 171.602 175.656 171.602C176.339 171.602 176.844 171.372 177.172 170.914C177.5 170.456 177.664 169.784 177.664 168.898C177.664 168.013 177.5 167.339 177.172 166.875C176.844 166.411 176.339 166.18 175.656 166.18C174.964 166.18 174.451 166.414 174.117 166.883C173.784 167.346 173.617 168.018 173.617 168.898Z" fill="#47AF56"/>
</g>
</svg>
