<svg width="760" height="174" viewBox="0 0 760 174" fill="none" xmlns="http://www.w3.org/2000/svg">
<mask id="mask0" mask-type="alpha" maskUnits="userSpaceOnUse" x="0" y="0" width="760" height="174">
<rect width="760" height="174" fill="#9D1A1A"/>
</mask>
<g mask="url(#mask0)">
<path d="M148.529 27.261L78.4377 172H104.044L108.167 164.405C111.856 157.678 127.697 148.347 157.209 148.347H206.468L217.101 172H243.575L165.672 7.29699H139.632L148.529 27.261ZM165.889 124.477C143.755 124.477 130.518 128.6 124.659 133.591L160.464 56.122L195.835 124.477H165.889ZM298.377 149.432V117.316C308.142 122.958 320.511 123.826 333.531 123.826H345.032C353.929 123.826 362.609 125.779 362.609 136.412C362.609 147.262 354.146 149.432 345.032 149.432H298.377ZM298.377 81.945H362.609V59.594H276.026V172H345.032C367.383 172 384.96 160.499 384.96 136.846C384.96 113.41 367.383 101.041 345.032 101.041H333.531C312.916 101.041 308.142 99.739 298.377 94.531V81.945Z" fill="#E83C45"/>
<path d="M134.488 162.328L129.32 173H131.208L131.512 172.44C131.784 171.944 132.952 171.256 135.128 171.256H138.76L139.544 173H141.496L135.752 160.856H133.832L134.488 162.328ZM135.768 169.496C134.136 169.496 133.16 169.8 132.728 170.168L135.368 164.456L137.976 169.496H135.768ZM149.937 169.624C151.137 169.256 151.841 168.472 151.841 167.208C151.841 165.768 150.753 164.712 149.233 164.712H143.889V173H145.569V170.088C146.241 169.736 146.593 169.608 147.889 169.608H148.001L149.281 171.688C150.049 172.936 150.833 173 151.697 173H152.417V171.224H151.841C151.425 171.224 150.849 171.16 150.449 170.488L149.937 169.624ZM147.889 167.96C147.025 167.96 146.209 168.088 145.569 168.44V166.36H148.945C149.521 166.36 150.161 166.424 150.161 167.16C150.161 167.688 149.729 167.96 149.233 167.96H147.889ZM159.463 169.8L160.615 171.688C161.591 172.888 162.167 173 163.031 173H163.751V171.224H163.175C162.759 171.224 162.279 171.176 161.783 170.488L160.567 168.44L163.303 164.712H161.191L157.367 170.024V164.712H155.623V173H157.367L159.463 169.8ZM168.427 169.704C168.763 169.56 169.099 169.512 169.467 169.512C170.283 169.512 171.099 169.736 171.963 169.736C172.299 169.736 172.619 169.688 172.939 169.528V173H174.571V164.712H172.939V167.848C172.603 168.008 172.251 168.056 171.899 168.056C171.067 168.056 170.091 167.816 169.403 167.816C169.067 167.816 168.731 167.88 168.427 168.024V164.712H166.795V173H168.427V169.704ZM180.036 173V164.712H178.404V173H180.036ZM185.505 166.36H188.849C189.521 166.36 190.161 166.504 190.161 167.32C190.161 168.216 189.633 168.36 188.849 168.36H188.113C187.153 168.36 186.225 168.424 185.505 168.84V166.36ZM185.505 173V170.488C186.225 170.104 186.593 170.008 188.113 170.008H188.849C190.705 170.008 191.841 168.968 191.841 167.336C191.841 165.736 190.737 164.712 189.137 164.712H183.873V173H185.505Z" fill="#E83C45"/>
<path d="M430.488 63.328L425.32 74H427.208L427.512 73.44C427.784 72.944 428.952 72.256 431.128 72.256H434.76L435.544 74H437.496L431.752 61.856H429.832L430.488 63.328ZM431.768 70.496C430.136 70.496 429.16 70.8 428.728 71.168L431.368 65.456L433.976 70.496H431.768ZM445.141 71.248C443.429 71.248 442.309 71.696 441.781 71.968L443.749 68.176L445.365 71.248H445.141ZM442.901 66.56L438.933 74H440.661L440.709 73.904C440.981 73.552 443.109 72.752 445.157 72.752H446.149L446.805 74H448.613L444.133 65.52H442.357L442.901 66.56ZM457.082 63.824H463.418V62.064H455.354V74H461.402C463.386 74 465.498 73.104 465.498 70.736C465.498 68.096 463.77 66.992 461.402 66.992H459.354C458.586 66.992 457.802 66.896 457.082 66.512V63.824ZM457.082 68.288C457.802 68.704 458.57 68.768 459.354 68.768H461.402C462.554 68.768 463.77 69.12 463.77 70.512C463.77 71.872 462.554 72.24 461.578 72.24H457.082V68.288ZM469.865 72.336V69.968C470.585 70.384 471.497 70.448 472.457 70.448H473.305C473.961 70.448 474.601 70.592 474.601 71.376C474.601 72.176 473.977 72.336 473.305 72.336H469.865ZM469.865 67.36H474.601V65.712H468.217V74H473.305C474.953 74 476.249 73.152 476.249 71.408C476.249 69.68 474.953 68.768 473.305 68.768H472.457C470.937 68.768 470.585 68.672 469.865 68.288V67.36ZM485.035 63.824H489.355C490.395 63.824 491.131 64.208 491.131 65.344C491.131 66.448 490.427 66.992 489.355 66.992H487.307C486.523 66.992 485.755 67.056 485.035 67.472V63.824ZM485.035 69.248C485.755 68.864 486.539 68.768 487.307 68.768H489.355C490.507 68.768 491.723 69.12 491.723 70.512C491.723 71.712 490.507 72.256 489.531 72.256H485.035V69.248ZM493.451 70.736C493.451 69.088 492.635 68.064 491.803 67.68C492.507 67.232 492.875 66.352 492.875 65.328C492.875 63.232 491.371 62.064 489.355 62.064H483.307V74H489.355C491.339 74 493.451 73.104 493.451 70.736ZM498.146 67.36H501.586C502.082 67.36 502.418 67.6 502.418 68.048C502.418 68.528 502.162 68.768 501.586 68.768H500.738C499.778 68.768 498.866 68.832 498.146 69.248V67.36ZM498.146 70.928C498.866 70.544 499.218 70.448 500.738 70.448H501.586C502.498 70.448 502.882 70.768 502.882 71.376C502.882 72.176 502.258 72.336 501.586 72.336H498.146V70.928ZM504.53 71.408C504.53 70.592 504.178 69.84 503.554 69.472C503.954 69.104 504.098 68.592 504.098 68.048C504.098 66.656 502.946 65.712 501.586 65.712H496.498V74H501.586C503.41 74 504.53 73.04 504.53 71.408ZM513.66 63.824H520.316V62.064H511.916V74H513.66V63.824ZM527.906 67.36V65.712H521.858V74H523.49V67.36H527.906ZM537.665 72.256C539.265 69.952 540.465 66.4 540.769 63.824H543.729V72.256H537.665ZM546.513 75.84V72.256H545.473V62.064H536.977L537.713 63.824H539.025C538.481 67.168 537.393 69.984 535.537 72.256H533.777V75.84H535.521V74H544.769V75.84H546.513ZM552.145 72.336C553.057 71.12 553.585 69.104 553.969 67.36H556.097V72.336H552.145ZM558.769 75.84V72.336H557.729V65.712H550.193L550.929 67.36H552.241C551.953 68.704 551.793 70.352 550.193 72.336H548.593V75.84H550.257V74H557.105V75.84H558.769ZM567.582 69.216C568.302 68.832 569.07 68.752 569.838 68.752H572.446V66.976H569.838C569.054 66.976 568.302 67.024 567.582 67.44V63.824H574.238V62.064H565.838V74H574.942V72.256H567.582V69.216ZM579.536 71.024C580.256 70.64 580.608 70.544 582.128 70.544H583.344V68.896H582.128C581.168 68.896 580.256 68.96 579.536 69.376V67.36H584.432V65.712H577.904V74H584.736V72.336H579.536V71.024ZM593.785 72.256H601.145V74H592.041V62.064H600.441V63.824H593.785V67.44C594.505 67.024 595.257 66.976 596.041 66.976H598.649V68.752H596.041C595.273 68.752 594.505 68.832 593.785 69.216V72.256ZM593.641 59.872C593.641 60.4 594.057 60.816 594.585 60.816C595.113 60.816 595.545 60.4 595.545 59.872C595.545 59.344 595.113 58.912 594.585 58.912C594.057 58.912 593.641 59.344 593.641 59.872ZM597.177 59.872C597.177 60.4 597.593 60.816 598.121 60.816C598.649 60.816 599.081 60.4 599.081 59.872C599.081 59.344 598.649 58.912 598.121 58.912C597.593 58.912 597.177 59.344 597.177 59.872ZM605.74 72.336H610.94V74H604.108V65.712H610.635V67.36H605.74V69.376C606.46 68.96 607.372 68.896 608.332 68.896H609.548V70.544H608.332C606.812 70.544 606.46 70.64 605.74 71.024V72.336ZM604.796 63.6C604.796 64.128 605.212 64.544 605.74 64.544C606.268 64.544 606.7 64.128 606.7 63.6C606.7 63.072 606.268 62.64 605.74 62.64C605.212 62.64 604.796 63.072 604.796 63.6ZM608.332 63.6C608.332 64.128 608.748 64.544 609.276 64.544C609.804 64.544 610.236 64.128 610.236 63.6C610.236 63.072 609.804 62.64 609.276 62.64C608.748 62.64 608.332 63.072 608.332 63.6ZM625.252 66.976C624.58 66.96 623.924 66.848 623.3 66.512L620.292 62.064H618.196L622.116 67.68L619.972 70.896C619.156 72.112 618.532 72.24 618.004 72.24C617.86 72.24 617.732 72.224 617.62 72.224L617.604 74C618.916 74 620.004 74.176 621.316 72.112L623.62 68.448C624.148 68.672 624.692 68.752 625.252 68.752V74H626.996V68.752C627.556 68.752 628.1 68.672 628.644 68.448L630.932 72.112C632.244 74.192 633.268 74 634.66 74L634.644 72.224C634.516 72.224 634.388 72.24 634.26 72.24C633.716 72.24 633.092 72.096 632.292 70.896L630.148 67.68L634.068 62.064H631.972L628.948 66.512C628.324 66.848 627.652 66.96 626.996 66.976V62.064H625.252V66.976ZM643.061 69.072C642.485 69.072 642.053 68.976 641.797 68.736L639.461 65.712H637.349L640.389 69.6L638.997 71.488C638.485 72.176 637.893 72.32 637.477 72.32H637.061V74H637.621C638.485 74 639.221 74 640.101 72.72L641.557 70.608C641.989 70.768 642.453 70.816 643.061 70.816V74H644.805V70.816C645.413 70.816 645.877 70.768 646.309 70.608L647.765 72.72C648.645 74 649.381 74 650.245 74H650.805V72.32H650.389C649.973 72.32 649.365 72.176 648.869 71.488L647.477 69.6L650.517 65.712H648.405L646.069 68.736C645.813 68.976 645.381 69.072 644.805 69.072V65.712H643.061V69.072ZM659.094 64.912C660.022 63.968 660.79 63.472 662.294 63.472C663.334 63.472 664.838 64.016 664.838 65.328C664.838 66.432 664.134 66.976 663.062 66.976H661.078V68.752H663.062C664.214 68.752 665.43 69.104 665.43 70.496C665.43 71.584 664.63 72.528 662.294 72.528C660.742 72.528 658.998 71.808 658.134 70.656L657.062 72.112C658.246 73.44 660.422 74.272 662.294 74.272C665.846 74.272 667.158 72.448 667.158 70.512C667.158 69.104 666.55 68.256 665.51 67.648C666.278 67.12 666.582 66.464 666.582 65.392C666.582 64.016 665.59 61.712 662.294 61.712C660.07 61.712 659.078 62.496 657.974 63.6L659.094 64.912ZM670.717 67.696C671.485 67.264 672.493 67.104 672.925 67.104C674.045 67.104 674.717 67.36 674.717 67.984C674.717 68.368 674.461 68.768 673.885 68.768H672.141V70.416H673.885C674.541 70.416 675.181 70.592 675.181 71.376C675.181 72.336 674.205 72.592 672.925 72.592C671.933 72.592 670.813 72.288 669.869 71.36L668.925 72.784C669.837 73.696 671.501 74.272 672.925 74.272C674.829 74.272 676.829 73.568 676.829 71.408C676.829 70.656 676.509 69.84 675.853 69.472C676.253 69.104 676.413 68.464 676.413 67.984C676.413 66.304 675.149 65.44 672.925 65.44C672.173 65.44 670.893 65.6 669.789 66.272L670.717 67.696ZM428.488 102.264V93.064H426.76V105H428.488L435.512 95.8V105H437.24V93.064H435.512L428.488 102.264ZM442.552 102.664V96.712H440.92V105H442.552L447.384 99.016V105H449.016V96.712H447.384L442.552 102.664ZM465.793 93.064H467.521V105H465.793V95.8L458.769 105H457.041V93.064H458.769V102.264L465.793 93.064ZM462.369 91.064C461.329 91.064 461.137 90.376 461.137 89.864H459.297C459.409 90.856 460.081 92.184 462.369 92.184C464.657 92.184 465.329 90.856 465.441 89.864H463.601C463.601 90.376 463.409 91.064 462.369 91.064ZM477.665 96.712H479.297V105H477.665V99.016L472.833 105H471.201V96.712H472.833V102.664L477.665 96.712ZM475.409 94.744C474.369 94.744 474.177 94.056 474.177 93.544H472.337C472.449 94.536 473.121 95.864 475.409 95.864C477.697 95.864 478.369 94.536 478.481 93.544H476.641C476.641 94.056 476.449 94.744 475.409 94.744ZM489.067 99.752H490.075C490.651 99.752 491.243 99.688 491.803 99.448L494.091 103.112C495.403 105.192 496.411 105 497.803 105V103.224C497.675 103.224 497.547 103.24 497.419 103.24C496.875 103.24 496.251 103.096 495.451 101.896L493.307 98.68L497.227 93.064H495.131L492.107 97.512C491.403 97.896 490.619 97.976 489.867 97.976H489.067V93.064H487.323V105H489.067V99.752ZM502.586 101.816H503.29C503.738 101.816 504.202 101.768 504.634 101.608L506.09 103.688C506.97 104.952 507.706 105 508.57 105H509.29V103.336H508.714C508.298 103.336 507.69 103.176 507.194 102.488L505.802 100.6L508.842 96.712H506.73L504.394 99.736C504.074 99.992 503.706 100.072 503.13 100.072H502.586V96.712H500.842V105H502.586V101.816ZM526.538 105V93.064H517.546L518.298 94.824H519.674C519.418 97.272 519.066 99.688 517.786 101.736C516.906 103.144 516.25 103.256 515.706 103.256H515.386V105H515.706C516.346 105 517.546 104.904 518.41 103.88C520.33 101.592 521.05 97.928 521.354 94.824H524.794V105H526.538ZM531.673 98.36C531.529 99.944 531.417 101.096 530.585 102.424C530.121 103.16 529.705 103.336 529.369 103.336H528.937V105H529.785C530.201 105 530.969 104.936 531.529 104.28C532.761 102.824 533.225 100.36 533.417 98.36H535.737V105H537.481V96.712H529.625L530.329 98.36H531.673ZM555.702 96.792V105H557.414V94.744L558.806 93.064H556.55L551.606 98.92L546.726 93.064H544.47L545.862 94.744V105H547.574V96.792L551.622 101.672L555.702 96.792ZM571.515 96.712H569.499L565.963 101.4L562.427 96.712H560.411L561.227 98.04V105H563.035V100.152L565.963 104.056L568.891 100.152V105H570.699V98.04L571.515 96.712ZM580.222 99.72C580.702 99.48 581.23 99.4 581.742 99.4C582.446 99.4 584.542 99.752 585.63 99.752C586.126 99.752 586.734 99.672 587.246 99.448V105H588.99V93.064H587.246V97.688C586.734 97.912 586.126 97.992 585.63 97.992C584.542 97.992 582.446 97.64 581.742 97.64C581.23 97.64 580.702 97.72 580.222 97.96V93.064H578.494V105H580.222V99.72ZM594.302 101.704C594.638 101.56 594.974 101.512 595.342 101.512C596.158 101.512 596.974 101.736 597.838 101.736C598.174 101.736 598.494 101.688 598.814 101.528V105H600.446V96.712H598.814V99.848C598.478 100.008 598.126 100.056 597.774 100.056C596.942 100.056 595.966 99.816 595.278 99.816C594.942 99.816 594.606 99.88 594.302 100.024V96.712H592.67V105H594.302V101.704ZM618.783 98.952C618.783 101.544 616.655 103.528 614.095 103.528C611.599 103.528 609.375 101.64 609.375 99.064C609.375 96.376 611.423 94.472 614.079 94.472C616.623 94.472 618.783 96.328 618.783 98.952ZM620.511 99.048C620.511 95.48 617.631 92.712 614.095 92.712C610.671 92.712 607.663 95.336 607.663 98.856C607.663 102.456 610.463 105.272 614.079 105.272C617.535 105.272 620.511 102.568 620.511 99.048ZM630.653 100.792C630.653 102.584 629.069 103.576 627.501 103.576C625.917 103.576 624.317 102.728 624.317 100.856C624.317 98.984 625.885 98.136 627.485 98.136C629.053 98.136 630.653 98.936 630.653 100.792ZM632.381 100.776C632.381 97.896 629.981 96.44 627.485 96.44C625.005 96.44 622.589 98.008 622.589 100.824C622.589 103.624 624.957 105.256 627.469 105.256C629.981 105.256 632.381 103.592 632.381 100.776ZM649.46 105V93.064H639.604V105H641.332V94.824H647.716V105H649.46ZM660.915 105V96.712H653.139V105H654.771V98.36H659.283V105H660.915ZM672.948 98.168C672.164 98.168 671.396 98.232 670.676 98.648V94.824H675.06C676.212 94.824 676.82 95.272 676.82 96.472C676.82 97.624 676.196 98.168 675.06 98.168H672.948ZM670.676 105V100.408C671.396 100.024 672.18 99.928 672.948 99.928H675.06C677.172 99.928 678.548 98.584 678.548 96.472C678.548 94.344 677.172 93.064 675.06 93.064H668.932V105H670.676ZM682.755 98.36H686.099C686.771 98.36 687.411 98.52 687.411 99.32C687.411 100.2 686.883 100.36 686.099 100.36H685.363C684.403 100.36 683.475 100.424 682.755 100.84V98.36ZM682.755 105V102.488C683.475 102.104 683.843 102.008 685.363 102.008H686.099C687.955 102.008 689.091 100.968 689.091 99.336C689.091 97.736 687.987 96.712 686.387 96.712H681.123V105H682.755ZM436.984 125.6C435.816 124.432 434.184 123.712 432.392 123.712C428.968 123.712 425.96 126.336 425.96 129.856C425.96 133.456 428.76 136.272 432.376 136.272C434.296 136.272 436.056 135.456 437.256 134.112L436.184 132.656C435.32 133.808 433.944 134.528 432.392 134.528C429.896 134.528 427.672 132.64 427.672 130.064C427.672 127.376 429.72 125.472 432.376 125.472C433.736 125.472 435 126.016 435.864 126.912L436.984 125.6ZM446.51 133.696C445.871 134.272 444.959 134.592 444.095 134.592C442.511 134.592 440.927 133.728 440.927 131.856C440.927 129.984 442.479 129.104 444.079 129.104C444.863 129.104 445.567 129.264 446.191 129.696L447.295 128.416C446.383 127.728 445.295 127.44 444.079 127.44C441.599 127.44 439.183 129.008 439.183 131.824C439.183 134.624 441.551 136.256 444.063 136.256C445.327 136.256 446.559 135.856 447.47 135.072L446.51 133.696ZM463.421 125.824V124.064H453.261V125.824H457.517V136H459.213V125.824H463.421ZM472.322 129.36V127.712H464.546V129.36H467.554V136H469.202V129.36H472.322ZM479.537 124.064H477.633C478.641 128.72 480.593 131.712 482.897 133.808C482.641 134.272 482.193 134.464 481.633 134.464C480.785 134.464 480.369 134.288 479.857 133.872L479.185 135.392C479.617 135.824 480.833 136.16 481.633 136.16C482.769 136.16 483.809 135.824 484.769 134.432C486.897 131.312 488.209 127.632 489.153 124.064H487.153C486.465 126.768 485.249 130.272 483.921 132.512C482.161 130.432 480.481 128.288 479.537 124.064ZM490.425 135.216C491.129 135.744 492.153 136.112 492.825 136.112C493.945 136.112 494.505 135.952 495.353 134.944C496.825 133.184 498.185 130.192 499.017 127.712H497.241C496.633 129.6 495.721 131.44 495.097 132.48C493.513 131.472 492.441 129.696 491.945 127.712H490.105C490.809 130.368 492.569 132.992 494.121 133.776C493.817 134.192 493.497 134.528 492.857 134.528C492.361 134.528 491.769 134.128 491.337 133.792L490.425 135.216ZM516.576 131.856C515.712 131.856 514.816 131.888 514.064 132.336V125.92H516.576C518.224 125.92 519.552 127.248 519.552 128.896C519.552 130.528 518.224 131.856 516.576 131.856ZM509.84 131.856C508.192 131.856 506.864 130.528 506.864 128.896C506.864 127.248 508.192 125.92 509.84 125.92H512.352V132.336C511.632 131.92 510.896 131.856 509.84 131.856ZM516.576 133.6C519.184 133.6 521.296 131.488 521.296 128.896C521.296 126.288 519.184 124.176 516.576 124.176H514.064V123.584H512.352V124.176H509.84C507.232 124.176 504.96 126.288 504.96 128.896C504.96 131.488 507.232 133.6 509.84 133.6C510.704 133.6 511.52 133.6 512.352 134.096V136H514.064V134.096C514.784 133.712 515.536 133.6 516.576 133.6ZM528.115 133.456C527.795 133.168 526.979 133.024 526.435 133.024C525.539 133.024 524.819 132.336 524.819 131.44C524.819 130.528 525.539 129.808 526.435 129.808H528.115V133.456ZM531.427 133.024C530.883 133.04 530.067 133.152 529.747 133.456V129.808H531.427C532.323 129.808 533.043 130.528 533.043 131.44C533.043 132.336 532.323 132.992 531.427 133.024ZM526.147 134.528C526.819 134.528 527.603 134.544 528.115 135.008V136H529.747V135.008C530.259 134.544 531.043 134.528 531.715 134.528C533.459 134.528 534.867 133.136 534.867 131.408C534.867 129.664 533.459 128.256 531.715 128.256H529.747V127.44H528.115V128.256H526.131C524.387 128.256 522.979 129.664 522.979 131.408C522.979 133.136 524.387 134.528 526.131 134.528H526.147ZM552.856 136L548.088 129.52L552.136 124.064H549.976L546.984 128.048L544.04 124.064H541.928L545.864 129.52L540.968 136H543.192L546.984 130.976L550.648 136H552.856ZM559.08 133.024L561.432 136H563.672L560.216 131.6L563.32 127.712H561.128L559.128 130.208L557.176 127.712H554.92L557.976 131.616L554.456 136H556.712L559.08 133.024ZM580.429 134.256V124.064H578.685V134.256H572.301V124.064H570.573V136H580.013L578.893 138.512H580.829L582.749 134.256H580.429ZM593.227 134.256V127.712H591.595V134.256H587.083V127.712H585.467V136H592.347L591.227 138.512H592.923L594.843 134.256H593.227ZM608.653 124.064V129.648C607.485 130.064 606.605 130.368 605.677 130.368C603.805 130.368 602.685 129.824 602.685 128.112C602.685 126.784 602.797 125.392 603.005 124.064H601.261C601.053 125.104 600.941 127.04 600.941 127.632C600.941 130.96 602.557 132.08 605.613 132.08C607.005 132.08 607.853 131.792 608.653 131.408V136H610.397V124.064H608.653ZM618.94 127.712V131.296C617.996 131.584 617.612 131.68 616.86 131.68C615.356 131.68 614.748 131.312 614.748 130.112C614.748 129.312 614.828 128.544 615.068 127.712H613.436C613.18 128.624 613.116 129.584 613.116 130.544C613.116 132.608 614.54 133.312 616.812 133.312C617.676 133.312 618.284 133.216 618.94 132.96V136H620.572V127.712H618.94ZM643.404 136V124.064H641.66V134.256H636.876V124.544H635.132V134.256H630.348V124.064H628.604V136H643.404ZM656.084 127.712V134.256H653.22V128.016H651.508V134.256H648.692V127.712H647.076V136H657.716V127.712H656.084ZM441.56 165.256V155.064H439.816V165.256H435.032V155.544H433.288V165.256H428.504V155.064H426.76V167H441.16L440.04 169.512H441.976L443.896 165.256H441.56ZM457.263 165.256V158.712H455.631V165.256H452.767V159H451.055V165.256H448.239V158.712H446.623V167H456.383L455.263 169.512H456.959L458.879 165.256H457.263ZM469.58 165.256V161.288C470.3 161.704 471.068 161.768 471.852 161.768H473.9C475.052 161.768 476.268 162.12 476.268 163.512C476.268 164.872 475.052 165.256 474.076 165.256H469.58ZM473.9 167C475.788 167 478.076 166.36 478.076 163.512C478.076 161.144 476.476 159.992 473.9 159.992H471.852C471.084 159.992 470.3 159.896 469.58 159.512V155.064H464.988V156.824H467.852V167H473.9ZM483.917 165.336V162.968C484.637 163.384 485.549 163.448 486.509 163.448H487.357C488.013 163.448 488.653 163.592 488.653 164.376C488.653 165.176 488.029 165.336 487.357 165.336H483.917ZM483.917 158.712H479.757V160.36H482.269V167H487.357C489.005 167 490.301 166.152 490.301 164.408C490.301 162.68 489.005 161.8 487.357 161.8H486.509C484.989 161.8 484.637 161.704 483.917 161.32V158.712ZM503.339 161.768C504.491 161.768 505.707 162.12 505.707 163.512C505.707 164.872 504.491 165.256 503.515 165.256H499.019V161.288C499.739 161.704 500.507 161.768 501.291 161.768H503.339ZM503.339 167C505.227 167 507.515 166.36 507.515 163.512C507.515 161.144 505.915 159.992 503.339 159.992H501.291C500.523 159.992 499.739 159.896 499.019 159.512V155.064H497.291V167H503.339ZM511.802 165.336V162.968C512.522 163.384 513.434 163.448 514.394 163.448H515.242C515.898 163.448 516.538 163.592 516.538 164.376C516.538 165.176 515.914 165.336 515.242 165.336H511.802ZM511.802 158.712H510.154V167H515.242C516.89 167 518.186 166.152 518.186 164.408C518.186 162.68 516.89 161.8 515.242 161.8H514.394C512.874 161.8 512.522 161.704 511.802 161.32V158.712ZM525.598 157.912C526.462 157.016 527.726 156.472 529.086 156.472C531.982 156.472 533.422 158.072 533.742 160.408C533.038 160.008 532.27 159.944 531.502 159.944H527.662V161.72H531.502C532.222 161.72 532.974 161.8 533.646 162.136C533.134 164.152 531.198 165.528 529.07 165.528C527.518 165.528 526.142 164.808 525.278 163.656L524.206 165.112C525.406 166.456 527.166 167.272 529.086 167.272C532.702 167.272 535.502 164.456 535.502 160.856C535.502 157.336 533.134 154.712 529.07 154.712C527.278 154.712 525.646 155.432 524.478 156.6L525.598 157.912ZM537.741 166.072C538.653 166.856 539.885 167.256 541.149 167.256C543.661 167.256 546.029 165.624 546.029 162.824C546.029 160.008 543.613 158.44 541.133 158.44C539.917 158.44 538.717 158.792 537.805 159.48L538.909 160.76C539.533 160.328 540.349 160.104 541.133 160.104C542.557 160.104 543.949 160.808 544.221 162.296C543.533 161.96 542.701 161.896 541.821 161.896H540.333V163.544H541.821C543.101 163.544 543.533 163.624 544.093 163.88C543.629 165.048 542.381 165.592 541.117 165.592C540.253 165.592 539.341 165.272 538.701 164.696L537.741 166.072ZM567.26 160.952C567.26 163.544 565.292 165.528 562.748 165.528C560.348 165.528 558.204 163.528 558.204 160.952C558.204 158.264 560.172 156.472 562.732 156.472C565.18 156.472 567.26 158.328 567.26 160.952ZM568.924 160.952C568.924 157.384 566.156 154.712 562.748 154.712C559.756 154.712 557.1 156.808 556.636 159.896H554.988V155.064H553.26V167H554.988V161.656H556.604C556.956 164.872 559.516 167.272 562.732 167.272C566.188 167.272 568.924 164.584 568.924 160.952ZM582.275 162.776C582.275 164.584 580.787 165.576 579.347 165.576C577.907 165.576 576.403 164.728 576.403 162.856C576.403 160.968 577.875 160.12 579.347 160.12C580.771 160.12 582.275 160.92 582.275 162.776ZM583.827 162.776C583.827 159.896 581.651 158.44 579.283 158.44C577.203 158.44 575.283 159.656 574.819 161.848H573.443V158.712H571.811V167H573.443V163.528H574.771C575.123 165.896 577.091 167.256 579.267 167.256C581.651 167.256 583.827 165.592 583.827 162.776ZM599.185 160.84C598.465 160.424 597.697 160.36 596.913 160.36H594.657C593.457 160.36 592.625 159.784 592.625 158.504C592.625 157.48 593.521 156.824 594.657 156.824H599.185V160.84ZM599.185 167H600.929V155.064H594.657C592.481 155.064 590.897 156.424 590.897 158.536C590.897 160.52 592.129 161.768 593.905 162.024L592.625 163.896C591.793 165.112 591.185 165.24 590.657 165.24H590.257V167H590.785C591.857 167 592.849 166.888 593.969 165.112L595.873 162.104H596.913C597.681 162.104 598.465 162.2 599.185 162.584V167ZM610.692 162.808C609.972 162.392 609.06 162.328 607.892 162.328C607.188 162.328 606.372 162.248 606.372 161.352C606.372 160.44 607.188 160.36 607.892 160.36L610.692 160.376V162.808ZM608.436 164.04C609.604 164.088 609.988 164.2 610.692 164.568V167H612.372V158.712H607.3C605.636 158.712 604.452 159.832 604.452 161.4C604.452 162.712 605.172 163.656 606.564 163.96L606.228 164.488C605.78 165.208 605.444 165.32 605.14 165.32H604.292V167H605.012C606.036 167 606.788 166.92 607.492 165.688L608.436 164.04Z" fill="black"/>
</g>
</svg>
